<?xml version="1.0" encoding="utf-8"?><svg width="64" height="64" viewBox="0 0 64 64" fill="none" xmlns="http://www.w3.org/2000/svg">
<g clip-path="url(#clip0_4217_6079)">
<path d="M19.484 27.6684C19.484 28.3743 19.5603 28.9467 19.6939 29.3664C19.8465 29.7862 20.0373 30.2441 20.3044 30.7401C20.3998 30.8928 20.438 31.0454 20.438 31.1789C20.438 31.3697 20.3235 31.5605 20.0755 31.7513L18.8735 32.5526C18.7018 32.6671 18.5301 32.7243 18.3774 32.7243C18.1867 32.7243 17.9959 32.6289 17.8051 32.4572C17.538 32.1711 17.309 31.8658 17.1182 31.5605C16.9274 31.2362 16.7367 30.8737 16.5268 30.4349C15.0386 32.1901 13.1689 33.0678 10.9176 33.0678C9.31494 33.0678 8.03665 32.6099 7.10178 31.6941C6.16692 30.7783 5.68994 29.5572 5.68994 28.0309C5.68994 26.4092 6.26231 25.0928 7.42613 24.1007C8.58994 23.1086 10.1353 22.6125 12.1005 22.6125C12.7492 22.6125 13.4169 22.6697 14.1228 22.7651C14.8288 22.8605 15.5538 23.0132 16.3169 23.1849V21.7921C16.3169 20.3421 16.0117 19.3309 15.4202 18.7395C14.8097 18.148 13.7794 17.8618 12.3103 17.8618C11.6426 17.8618 10.9557 17.9382 10.2498 18.1099C9.54389 18.2816 8.85705 18.4914 8.18928 18.7586C7.88402 18.8921 7.65507 18.9684 7.52152 19.0066C7.38797 19.0447 7.29257 19.0638 7.21626 19.0638C6.94915 19.0638 6.8156 18.873 6.8156 18.4724V17.5375C6.8156 17.2322 6.85376 17.0033 6.94915 16.8697C7.04455 16.7362 7.21626 16.6026 7.48336 16.4691C8.15113 16.1257 8.95244 15.8395 9.88731 15.6105C10.8222 15.3625 11.8143 15.248 12.8636 15.248C15.134 15.248 16.7939 15.7632 17.8623 16.7934C18.9117 17.8237 19.4459 19.3882 19.4459 21.4868V27.6684H19.484ZM11.738 30.5684C12.3676 30.5684 13.0163 30.4539 13.7031 30.225C14.3899 29.9961 15.0005 29.5763 15.5156 29.0039C15.8209 28.6414 16.0498 28.2408 16.1643 27.7829C16.2788 27.325 16.3551 26.7717 16.3551 26.123V25.3217C15.8018 25.1882 15.2103 25.0737 14.5998 24.9974C13.9893 24.9211 13.3978 24.8829 12.8064 24.8829C11.5281 24.8829 10.5932 25.1309 9.96363 25.6461C9.33402 26.1612 9.02876 26.8862 9.02876 27.8401C9.02876 28.7368 9.2577 29.4046 9.73468 29.8625C10.1926 30.3395 10.8603 30.5684 11.738 30.5684ZM27.0584 32.6289C26.7149 32.6289 26.486 32.5717 26.3334 32.4382C26.1807 32.3237 26.0472 32.0566 25.9327 31.6941L21.4492 16.9461C21.3347 16.5645 21.2774 16.3164 21.2774 16.1829C21.2774 15.8776 21.4301 15.7059 21.7353 15.7059H23.6051C23.9676 15.7059 24.2156 15.7632 24.3492 15.8967C24.5018 16.0112 24.6163 16.2783 24.7307 16.6408L27.936 29.2711L30.9123 16.6408C31.0077 16.2592 31.1222 16.0112 31.2748 15.8967C31.4274 15.7822 31.6945 15.7059 32.038 15.7059H33.5643C33.9268 15.7059 34.1748 15.7632 34.3274 15.8967C34.4801 16.0112 34.6136 16.2783 34.6899 16.6408L37.7044 29.4237L41.0051 16.6408C41.1195 16.2592 41.2531 16.0112 41.3867 15.8967C41.5393 15.7822 41.7873 15.7059 42.1307 15.7059H43.9051C44.2103 15.7059 44.382 15.8586 44.382 16.1829C44.382 16.2783 44.363 16.3737 44.3439 16.4882C44.3248 16.6026 44.2867 16.7553 44.2103 16.9651L39.6123 31.7132C39.4978 32.0947 39.3643 32.3428 39.2117 32.4572C39.059 32.5717 38.811 32.648 38.4867 32.648H36.8459C36.4834 32.648 36.2353 32.5908 36.0827 32.4572C35.9301 32.3237 35.7965 32.0757 35.7202 31.6941L32.763 19.3882L29.8248 31.675C29.7294 32.0566 29.6149 32.3046 29.4623 32.4382C29.3097 32.5717 29.0426 32.6289 28.6992 32.6289H27.0584ZM51.5748 33.1441C50.5827 33.1441 49.5906 33.0296 48.6367 32.8007C47.6827 32.5717 46.9386 32.3237 46.4426 32.0375C46.1373 31.8658 45.9274 31.675 45.8511 31.5033C45.7748 31.3316 45.7367 31.1408 45.7367 30.9691V29.9961C45.7367 29.5954 45.8893 29.4046 46.1755 29.4046C46.2899 29.4046 46.4044 29.4237 46.5189 29.4618C46.6334 29.5 46.8051 29.5763 46.9959 29.6526C47.6445 29.9388 48.3505 30.1678 49.0945 30.3204C49.8577 30.473 50.6018 30.5493 51.3649 30.5493C52.5669 30.5493 53.5018 30.3395 54.1505 29.9197C54.7992 29.5 55.1426 28.8895 55.1426 28.1072C55.1426 27.573 54.9709 27.1342 54.6274 26.7717C54.284 26.4092 53.6353 26.0849 52.7005 25.7796L49.934 24.9211C48.5413 24.4822 47.511 23.8336 46.8814 22.975C46.2518 22.1355 45.9274 21.2007 45.9274 20.2086C45.9274 19.4072 46.0992 18.7013 46.4426 18.0908C46.786 17.4803 47.2439 16.9461 47.8163 16.5263C48.3886 16.0875 49.0373 15.7632 49.8005 15.5342C50.5636 15.3053 51.3649 15.2099 52.2044 15.2099C52.6242 15.2099 53.063 15.2289 53.4827 15.2862C53.9215 15.3434 54.3222 15.4197 54.7228 15.4961C55.1044 15.5914 55.4669 15.6868 55.8103 15.8013C56.1538 15.9158 56.4209 16.0303 56.6117 16.1447C56.8788 16.2974 57.0695 16.45 57.184 16.6217C57.2985 16.7743 57.3557 16.9842 57.3557 17.2513V18.148C57.3557 18.5487 57.2031 18.7586 56.9169 18.7586C56.7643 18.7586 56.5163 18.6822 56.1919 18.5296C55.1044 18.0336 53.8834 17.7855 52.5288 17.7855C51.4413 17.7855 50.5827 17.9572 49.9913 18.3197C49.3998 18.6822 49.0945 19.2355 49.0945 20.0178C49.0945 20.552 49.2853 21.0099 49.6669 21.3724C50.0485 21.7349 50.7544 22.0974 51.7656 22.4217L54.4748 23.2803C55.8485 23.7191 56.8406 24.3296 57.432 25.1118C58.0235 25.8941 58.3097 26.7908 58.3097 27.7829C58.3097 28.6033 58.138 29.3474 57.8136 29.9961C57.4702 30.6447 57.0123 31.2171 56.4209 31.675C55.8294 32.152 55.1235 32.4954 54.3031 32.7434C53.4445 33.0105 52.5478 33.1441 51.5748 33.1441Z" fill="#252F3E"/>
<path fill-rule="evenodd" clip-rule="evenodd" d="M55.1811 42.4164C48.9041 47.0526 39.7843 49.5138 31.9429 49.5138C20.9534 49.5138 11.0514 45.45 3.57249 38.696C2.98105 38.1618 3.51526 37.4368 4.22118 37.8566C12.3107 42.55 22.2889 45.3928 32.6107 45.3928C39.5745 45.3928 47.2251 43.9428 54.2653 40.9664C55.3146 40.4895 56.2113 41.6533 55.1811 42.4164Z" fill="#FF9900"/>
<path fill-rule="evenodd" clip-rule="evenodd" d="M57.7947 39.4401C56.9934 38.4099 52.4908 38.9441 50.4493 39.1921C49.8388 39.2684 49.7434 38.7342 50.2967 38.3335C53.8835 35.8151 59.7789 36.5401 60.4658 37.3796C61.1526 38.2382 60.275 44.1335 56.9171 46.9572C56.402 47.396 55.9059 47.1671 56.1349 46.5947C56.898 44.7059 58.596 40.4513 57.7947 39.4401Z" fill="#FF9900"/>
</g>
<defs>
<clipPath id="clip0_4217_6079">
<rect width="58" height="34.7237" fill="white" transform="translate(3 15)"/>
</clipPath>
</defs>
</svg>
