<?xml version="1.0" encoding="utf-8"?><svg width="65" height="65" viewBox="0 0 65 65" fill="none" xmlns="http://www.w3.org/2000/svg">
<g clip-path="url(#clip0_4140_8369)">
<path d="M46.4215 12.9085C40.8354 8.1423 28.4774 5.78124 19.2161 12.6231C10.5256 18.3831 10.0975 28.9054 10.0975 28.9054C11.5764 34.6653 17.4492 40.1853 28.7641 37.496C27.4279 29.7564 30.0472 10.1726 46.4215 12.9098V12.9085Z" fill="#00ACD2"/>
<path d="M40.9212 32.0268C34.798 37.3937 16.1664 45.5834 10.3701 29.1144C8.9846 36.7839 12.8272 49.5467 23.4688 54.3726C32.8715 59.2517 42.67 53.6007 42.67 53.6007C46.9808 49.164 48.9475 40.9547 40.9212 32.0268Z" fill="#C8E9EB"/>
<path d="M29.5568 25.0717C36.7917 27.9478 52.2567 40.4135 41.9757 53.7625C48.7449 51.2315 56.6817 41.546 55.3559 29.5681C54.6761 18.6813 45.9298 12.741 45.9298 12.741C40.3126 11.039 32.7624 13.4312 29.5568 25.0717Z" fill="#662D91"/>
</g>
<defs>
<clipPath id="clip0_4140_8369">
<path d="M0.799988 10.3574C0.799988 4.83457 5.27714 0.357422 10.8 0.357422H54.8C60.3228 0.357422 64.8 4.83457 64.8 10.3574V54.3574C64.8 59.8803 60.3228 64.3574 54.8 64.3574H10.8C5.27714 64.3574 0.799988 59.8803 0.799988 54.3574V10.3574Z" fill="white"/>
</clipPath>
</defs>
</svg>
