<?xml version="1.0" encoding="utf-8"?><svg width="64" height="65" viewBox="0 0 64 65" fill="none" xmlns="http://www.w3.org/2000/svg">
<g clip-path="url(#clip0_4140_8516)">
<path d="M47.0939 36.8047C47.0939 32.8173 45.5099 28.9931 42.6903 26.1736C39.8708 23.354 36.0467 21.77 32.0592 21.77C28.0718 21.77 24.2476 23.354 21.4281 26.1736C18.6085 28.9931 17.0245 32.8173 17.0245 36.8047H21.3244C21.3244 33.9577 22.4554 31.2272 24.4686 29.214C26.4817 27.2009 29.2122 26.0699 32.0592 26.0699C34.9063 26.0699 37.6367 27.2009 39.6499 29.214C41.6631 31.2272 42.794 33.9577 42.794 36.8047" fill="black" fill-opacity="0.1"/>
<path d="M31.9552 42.0236C37.2943 42.0236 41.6225 37.6954 41.6225 32.3564C41.6225 27.0173 37.2943 22.6891 31.9552 22.6891C26.6161 22.6891 22.288 27.0173 22.288 32.3564C22.288 37.6954 26.6161 42.0236 31.9552 42.0236Z" fill="url(#paint0_radial_4140_8516)" stroke="url(#paint1_radial_4140_8516)" stroke-width="2.68125"/>
<path d="M53.5289 21.7108C52.1253 18.8815 50.1778 16.3566 47.7978 14.2804C45.4178 12.2042 42.6519 10.6174 39.6582 9.61079C36.6646 8.60419 33.5019 8.19749 30.351 8.41393C27.2 8.63037 24.1227 9.46571 21.2948 10.8722C17.5746 12.705 14.3999 15.4809 12.0872 18.9233L21.7544 35.6631C21.2499 34.068 21.1256 32.377 21.3916 30.7253C21.6577 29.0736 22.3066 27.5071 23.2865 26.1511C24.2663 24.7951 25.55 23.6873 27.0347 22.9163C28.5194 22.1452 30.164 21.7324 31.8369 21.7108" fill="url(#paint2_radial_4140_8516)"/>
<path d="M12.0869 18.9233C9.74659 22.4061 8.35886 26.4409 8.0617 30.6264C7.76454 34.8119 8.56831 39.0022 10.3931 42.7807C12.2178 46.5592 15 49.7941 18.4629 52.1637C21.9257 54.5334 25.9486 55.9551 30.1315 56.2876L40.2139 39.103C38.9961 40.5848 37.4031 41.7128 35.601 42.3692C33.7988 43.0257 31.8536 43.1867 29.968 42.8353C28.0825 42.4839 26.3258 41.6331 24.881 40.3716C23.4363 39.1101 22.3565 37.4841 21.7542 35.6631" fill="url(#paint3_radial_4140_8516)"/>
<path d="M30.1317 56.2875C34.3587 56.6106 38.596 55.81 42.4137 53.9668C46.2314 52.1236 49.4936 49.3034 51.8695 45.7923C54.2453 42.2813 55.6502 38.2043 55.9416 33.9749C56.2331 29.7456 55.4007 25.5144 53.5289 21.7107H31.8368C33.2466 21.7165 34.6413 22 35.9415 22.5448C37.2417 23.0897 38.4218 23.8853 39.4145 24.8863C40.4072 25.8872 41.193 27.0739 41.7271 28.3786C42.2612 29.6832 42.533 31.0803 42.5272 32.49C42.5266 34.8925 41.7112 37.2238 40.2141 39.1029" fill="url(#paint4_radial_4140_8516)"/>
<path opacity="0.08" d="M12.0872 18.9231L21.7544 35.6629C21.0338 33.2566 21.1861 30.6731 22.1844 28.368L12.5171 18.2708" fill="black"/>
<path opacity="0.05" d="M30.1318 56.2875L40.2142 39.1029C38.6169 40.9926 36.418 42.2753 33.9868 42.7355L29.7018 56.2579" fill="black"/>
<path opacity="0.05" d="M53.5286 21.7107H31.8365C33.4499 21.7151 35.0414 22.0842 36.4921 22.7903C37.9427 23.4963 39.215 24.5212 40.2139 25.7881L53.9586 22.3483" fill="black"/>
</g>
<defs>
<radialGradient id="paint0_radial_4140_8516" cx="0" cy="0" r="1" gradientUnits="userSpaceOnUse" gradientTransform="translate(31.5549 22.9856) scale(18.6821 18.6822)">
<stop offset="0.1" stop-color="#7FB3DF"/>
<stop offset="0.9" stop-color="#0F5B94"/>
</radialGradient>
<radialGradient id="paint1_radial_4140_8516" cx="0" cy="0" r="1" gradientUnits="userSpaceOnUse" gradientTransform="translate(31.5549 22.9856) scale(18.6821 18.6822)">
<stop stop-color="#F6F0EE"/>
<stop offset="1" stop-color="#DDDDDD"/>
</radialGradient>
<radialGradient id="paint2_radial_4140_8516" cx="0" cy="0" r="1" gradientUnits="userSpaceOnUse" gradientTransform="translate(32.7117 6.41014) scale(20.0314 13.2)">
<stop stop-color="#F06B59"/>
<stop offset="1" stop-color="#DF2227"/>
</radialGradient>
<radialGradient id="paint3_radial_4140_8516" cx="0" cy="0" r="1" gradientUnits="userSpaceOnUse" gradientTransform="translate(29.4981 30.7554) scale(24.4615 28.3791)">
<stop offset="0.65" stop-color="#4CB749"/>
<stop offset="1" stop-color="#388B41"/>
</radialGradient>
<radialGradient id="paint4_radial_4140_8516" cx="0" cy="0" r="1" gradientUnits="userSpaceOnUse" gradientTransform="translate(40.7906 33.4888) scale(21.4293 28.7029)">
<stop offset="0.6" stop-color="#FCD209"/>
<stop offset="0.7" stop-color="#F7C616"/>
<stop offset="1" stop-color="#BC821E"/>
</radialGradient>
<clipPath id="clip0_4140_8516">
<path d="M0 11.3574C0 5.28229 4.92487 0.357422 11 0.357422H53C59.0751 0.357422 64 5.28229 64 11.3574V53.3574C64 59.4326 59.0751 64.3574 53 64.3574H11C4.92487 64.3574 0 59.4326 0 53.3574V11.3574Z" fill="white"/>
</clipPath>
</defs>
</svg>
