<?xml version="1.0" encoding="utf-8"?><svg width="66" height="65" viewBox="0 0 66 65" fill="none" xmlns="http://www.w3.org/2000/svg">
<g clip-path="url(#clip0_4140_8413)">
<path d="M26.296 32.358C26.296 29.2086 28.8238 26.6537 31.9377 26.6537C35.053 26.6537 37.5809 29.2086 37.5809 32.358C37.5809 35.506 35.053 38.0623 31.9377 38.0623C28.8238 38.1064 26.296 35.506 26.296 32.358ZM31.9377 8.3573C20.835 8.3573 11.536 16.0232 8.91855 26.4261C8.91855 26.5172 8.87303 26.5627 8.87303 26.6537C8.87303 27.2938 9.36949 27.7946 10.0011 27.7946H19.5704C19.7911 27.7934 20.0068 27.7281 20.1912 27.6066C20.3755 27.4851 20.5206 27.3127 20.6088 27.1103C22.5946 22.7759 26.8821 19.7645 31.9377 19.7645C38.8 19.7645 44.3961 25.4218 44.3961 32.358C44.3961 39.2928 38.8 44.9516 31.9377 44.9516C26.9276 44.9516 22.5946 41.9401 20.6088 37.6043C20.5204 37.4021 20.3752 37.23 20.1909 37.1088C20.0065 36.9876 19.791 36.9225 19.5704 36.9214H10.0011C9.85183 36.9209 9.70395 36.95 9.56608 37.0072C9.42821 37.0644 9.30311 37.1485 9.1981 37.2546C9.09308 37.3607 9.01025 37.4866 8.95444 37.625C8.89863 37.7635 8.87095 37.9116 8.87303 38.0609C8.87303 38.1519 8.87303 38.1974 8.91855 38.2885C11.536 48.6928 20.835 56.3573 31.9377 56.3573C45.0733 56.3573 55.7265 45.5888 55.7265 32.3125C55.7265 19.0802 45.0733 8.3573 31.9377 8.3573Z" fill="#343434"/>
</g>
<defs>
<clipPath id="clip0_4140_8413">
<path d="M0.299927 8.35742C0.299927 3.93914 3.88165 0.357422 8.29993 0.357422H57.2999C61.7182 0.357422 65.2999 3.93914 65.2999 8.35742V56.3574C65.2999 60.7757 61.7182 64.3574 57.2999 64.3574H8.29993C3.88165 64.3574 0.299927 60.7757 0.299927 56.3574V8.35742Z" fill="white"/>
</clipPath>
</defs>
</svg>
