<?xml version="1.0" encoding="utf-8"?><svg width="65" height="65" viewBox="0 0 65 65" fill="none" xmlns="http://www.w3.org/2000/svg">
<path d="M31.0898 56.2087C30.1983 56.3169 29.3007 56.3661 28.4028 56.3561C26.944 56.2501 25.5171 55.8768 24.1934 55.2546C22.7621 54.5948 21.4435 53.7141 20.2857 52.6448C16.8971 49.5228 14.8205 45.6291 13.4454 41.2654C12.7398 39.1102 12.2693 36.885 12.0423 34.6286C11.916 33.2956 11.8458 31.9556 11.7546 30.6156C11.7546 30.4543 11.7546 30.2929 11.7546 30.0895C11.901 30.0663 12.0486 30.0522 12.1966 30.0474H43.5566C43.4865 31.219 43.4654 32.4046 43.3461 33.5552C43.1918 35.0916 43.0304 36.6351 42.7568 38.1504C42.0957 42.1485 40.7172 45.9942 38.6877 49.5018C37.5156 51.6096 35.8795 53.4233 33.9031 54.8056C32.999 55.338 32.0589 55.8068 31.0898 56.2087Z" fill="#D9D9D9"/>
<path d="M11.7617 28.055C12.0494 21.6427 15.2204 17.1386 20.6856 14.0237C20.6085 13.8834 20.5313 13.729 20.4541 13.5747C19.6684 12.1715 18.8826 10.7684 18.0898 9.31617C17.9893 9.20729 17.9334 9.06451 17.9334 8.91628C17.9334 8.76805 17.9893 8.62527 18.0898 8.51639C18.3705 8.22875 18.7914 8.341 19.037 8.77597C19.8297 10.1791 20.6085 11.5822 21.4012 13.0345C21.4924 13.2028 21.5907 13.3712 21.6819 13.5256C28.3818 11.4209 30.5286 11.4209 36.8357 13.5256C36.9199 13.3712 37.0251 13.2099 37.1163 13.0485C37.895 11.6454 38.6597 10.2422 39.4666 8.83911C39.5409 8.72472 39.6377 8.62659 39.7511 8.55062C39.8644 8.47466 39.992 8.42244 40.126 8.39712C40.554 8.39712 40.7224 8.85314 40.4698 9.31617C39.7682 10.6562 38.9965 11.9821 38.2528 13.3221C38.1266 13.5466 38.0073 13.7711 37.867 14.0237C43.3392 17.1176 46.5243 21.6427 46.8049 28.055H11.7617ZM22.7763 20.2746C22.776 19.982 22.6882 19.6961 22.5241 19.4538C22.36 19.2115 22.1272 19.0239 21.8556 18.915C21.584 18.8061 21.286 18.781 21 18.8429C20.7139 18.9048 20.453 19.0508 20.2507 19.2622C20.0483 19.4737 19.9139 19.7408 19.8647 20.0293C19.8154 20.3177 19.8536 20.6143 19.9743 20.8809C20.0951 21.1475 20.2928 21.3718 20.5421 21.5251C20.7914 21.6783 21.0808 21.7535 21.3732 21.7409C21.7528 21.7299 22.1128 21.5699 22.3754 21.2955C22.638 21.0211 22.782 20.6544 22.7763 20.2746ZM37.1935 18.8084C37.0022 18.8093 36.8129 18.848 36.6366 18.9222C36.4603 18.9965 36.3004 19.1049 36.1661 19.2411C36.0318 19.3774 35.9258 19.5388 35.8541 19.7162C35.7824 19.8935 35.7464 20.0833 35.7483 20.2746C35.7538 20.6635 35.9137 21.0342 36.1926 21.3053C36.4715 21.5763 36.8467 21.7254 37.2356 21.7199C37.6245 21.7143 37.9952 21.5544 38.2662 21.2755C38.5372 20.9966 38.6864 20.6214 38.6808 20.2325C38.6716 19.8516 38.5139 19.4894 38.2412 19.2233C37.9685 18.9572 37.6026 18.8082 37.2215 18.8084H37.1935Z" fill="#946E59"/>
<path d="M31.0898 56.209C32.0554 55.8204 32.9931 55.3656 33.8961 54.848C35.8843 53.4649 37.5304 51.646 38.7088 49.5301C40.7383 46.0225 42.1168 42.1769 42.7779 38.1788C43.0515 36.6634 43.2129 35.1199 43.3672 33.5835C43.4865 32.4119 43.5076 31.2263 43.5777 30.0757H46.7488C46.7488 30.7071 46.7488 31.2964 46.7488 31.8857C46.7381 31.9496 46.7241 32.0128 46.7067 32.0751C46.5804 33.0573 46.6295 33.1345 47.5696 33.5484C48.18 33.8291 48.7483 34.1869 49.3446 34.5096C48.9236 35.2111 48.4887 35.8496 48.0888 36.5301C47.9337 36.8261 47.7955 37.1306 47.6749 37.4421L46.2717 36.6985C45.6414 40.4398 44.3717 44.0447 42.5183 47.3552L44.0057 47.685L43.5146 51.0174C42.7148 50.842 41.901 50.7157 41.1222 50.4702C40.7013 50.3439 40.4207 50.3439 40.1611 50.6947C38.8121 52.3819 37.1431 53.7862 35.2501 54.8269C33.9725 55.5674 32.5566 56.0378 31.0898 56.209Z" fill="#CACACA"/>
<path d="M47.6745 37.4418C47.7952 37.1303 47.9334 36.8258 48.0884 36.5298C48.4883 35.8282 48.9233 35.1828 49.3442 34.5093C50.2612 35.0269 51.0481 35.7467 51.6454 36.614C53.0391 38.4806 53.6601 40.8125 53.3792 43.125C53.0983 45.4376 51.9371 47.553 50.137 49.0317C48.398 50.4802 46.1825 51.2304 43.9211 51.1364C43.7814 51.1178 43.6431 51.0897 43.5072 51.0522C43.6756 49.9437 43.8369 48.8282 43.9983 47.7198C44.6477 47.6539 45.2921 47.5461 45.9276 47.397C46.6675 47.1832 47.3555 46.8194 47.9488 46.3282C48.5421 45.837 49.0279 45.229 49.376 44.5419C49.7241 43.8549 49.9271 43.1035 49.9724 42.3347C50.0176 41.5658 49.9041 40.7958 49.6389 40.0727C49.2275 39.0379 48.5498 38.1302 47.6745 37.4418Z" fill="#D9D9D9"/>
<path d="M22.7759 20.2745C22.7757 20.5672 22.6878 20.853 22.5237 21.0953C22.3597 21.3376 22.1268 21.5253 21.8552 21.6342C21.5836 21.743 21.2856 21.7682 20.9996 21.7063C20.7136 21.6444 20.4526 21.4983 20.2503 21.2869C20.048 21.0755 19.9135 20.8084 19.8643 20.5199C19.8151 20.2314 19.8532 19.9348 19.974 19.6683C20.0947 19.4017 20.2924 19.1773 20.5417 19.0241C20.791 18.8708 21.0804 18.7956 21.3728 18.8082C21.7524 18.8193 22.1125 18.9793 22.375 19.2537C22.6376 19.5281 22.7816 19.8948 22.7759 20.2745Z" fill="#FEFEFE"/>
<path d="M37.2217 18.8085C37.6105 18.8029 37.9857 18.952 38.2646 19.2231C38.5436 19.4941 38.7034 19.8648 38.709 20.2537C38.7146 20.6426 38.5654 21.0178 38.2944 21.2967C38.0234 21.5756 37.6526 21.7355 37.2638 21.741C37.0671 21.7531 36.8701 21.7236 36.6856 21.6544C36.5011 21.5853 36.3333 21.4781 36.193 21.3397C36.0527 21.2014 35.9431 21.0351 35.8713 20.8516C35.7995 20.6681 35.7672 20.4716 35.7764 20.2748C35.7746 20.0835 35.8106 19.8937 35.8823 19.7163C35.954 19.539 36.06 19.3775 36.1943 19.2413C36.3286 19.105 36.4885 18.9967 36.6648 18.9224C36.8411 18.8481 37.0304 18.8094 37.2217 18.8085Z" fill="#FEFEFE"/>
</svg>
