<?xml version="1.0" encoding="utf-8"?><svg width="65" height="65" viewBox="0 0 65 65" fill="none" xmlns="http://www.w3.org/2000/svg">
<path d="M14.7135 47.1011L15.0049 46.6948L28.7541 20.6125L28.7833 20.3365L22.723 8.95308C22.6121 8.74492 22.4385 8.57691 22.2268 8.47283C22.0151 8.36874 21.7761 8.33385 21.5435 8.37309C21.3109 8.41233 21.0965 8.52372 20.9307 8.69149C20.7649 8.85925 20.656 9.07491 20.6195 9.30795L14.7135 47.1011Z" fill="#FFC24A"/>
<path d="M14.8849 46.7923L15.1044 46.3637L28.7113 20.5523L22.6664 9.12433C22.5668 8.92559 22.4054 8.7645 22.2064 8.66519C22.0075 8.56588 21.7818 8.5337 21.563 8.57348C21.3442 8.61325 21.1443 8.72283 20.993 8.88581C20.8418 9.04879 20.7474 9.25638 20.7241 9.47749L14.8849 46.7923Z" fill="#FFA712"/>
<path d="M33.2011 28.9459L37.7133 24.3171L33.1994 15.7093C33.1 15.5241 32.9523 15.3692 32.7719 15.2613C32.5915 15.1533 32.3852 15.0963 32.175 15.0963C31.9648 15.0963 31.7585 15.1533 31.5782 15.2613C31.3978 15.3692 31.25 15.5241 31.1507 15.7093L28.7386 20.3072V20.6998L33.2011 28.9459Z" fill="#F4BD62"/>
<path d="M33.1207 28.7574L37.5078 24.2657L33.1207 15.8997C33.0489 15.7186 32.9263 15.5621 32.7675 15.4492C32.6088 15.3362 32.4208 15.2716 32.2262 15.2631C32.0316 15.2545 31.8387 15.3025 31.6707 15.4012C31.5027 15.4998 31.3668 15.645 31.2795 15.8191L28.8554 20.4976L28.7834 20.7359L33.1207 28.7574Z" fill="#FFA50E"/>
<path d="M14.7168 47.1027L14.8488 46.969L15.3271 46.7753L32.9165 29.251L33.1393 28.6442L28.7523 20.2815L14.7168 47.1027Z" fill="#F6820C"/>
<path d="M33.7635 55.9403L49.6865 47.0616L45.1366 19.0643C45.104 18.867 45.0176 18.6824 44.887 18.5309C44.7564 18.3794 44.5865 18.2668 44.3961 18.2056C44.2057 18.1443 44.002 18.1366 43.8076 18.1835C43.6131 18.2303 43.4353 18.3299 43.2937 18.4712L14.7135 47.101L30.5422 55.9386C31.0343 56.2132 31.5885 56.3573 32.152 56.3573C32.7155 56.3573 33.2697 56.2132 33.7618 55.9386" fill="#FDE068"/>
<path d="M49.5408 46.988L45.0286 19.2016C45.0206 19.0128 44.9568 18.8307 44.8453 18.6782C44.7338 18.5257 44.5795 18.4097 44.402 18.3449C44.2245 18.2801 44.0318 18.2694 43.8482 18.3142C43.6647 18.359 43.4985 18.4572 43.3708 18.5965L14.8849 47.048L30.5388 55.7913C31.027 56.0636 31.5767 56.2066 32.1357 56.2066C32.6947 56.2066 33.2445 56.0636 33.7327 55.7913L49.5408 46.988Z" fill="#FCCA3F"/>
<path d="M33.7635 55.6728C33.2714 55.9474 32.7173 56.0915 32.1537 56.0915C31.5902 56.0915 31.036 55.9474 30.5439 55.6728L14.8438 46.9673L14.7135 47.101L30.5422 55.9385C31.0343 56.2131 31.5885 56.3573 32.152 56.3573C32.7155 56.3573 33.2697 56.2131 33.7618 55.9385L49.6865 47.0615L49.6471 46.8215L33.7635 55.6728Z" fill="#EEAB37"/>
</svg>
