<?xml version="1.0" encoding="utf-8"?><svg width="64" height="65" viewBox="0 0 64 65" fill="none" xmlns="http://www.w3.org/2000/svg">
<path d="M56.7333 29.3647C56.4707 29.3647 56.0667 29.3647 55.8405 29.3647C54.2165 29.3447 51.1019 29.5174 48.2781 31.9441C41.5358 37.7498 39.9966 46.2955 28.4591 50.9079C18.8486 54.7488 7 51.1128 7 51.1128C7 51.1128 17.572 50.3816 18.9738 42.3581C20.0686 36.0824 14.3281 31.6267 10.7246 25.9657C7.0606 20.2003 6.11934 15.4111 7.88471 13.342C12.8899 7.46404 26.6736 23.3542 33.5169 25.4957C40.2148 27.5889 44.7353 22.7274 50.2818 23.4426C52.0512 23.6676 52.9157 24.4269 53.4894 25.3952C53.6833 25.7207 54.16 26.8296 54.5842 27.2394C55.0002 27.6411 55.5537 27.9385 56.0708 28.2398C56.7293 28.6255 57.3797 29.3647 56.7333 29.3647Z" fill="url(#paint0_linear_4140_8560)"/>
<path d="M25.0576 20.1721C23.4013 18.9186 21.6925 17.6048 20.0119 16.4075C19.6322 16.1383 19.2525 15.8731 18.8768 15.616C14.3724 12.5504 10.1953 10.63 7.88461 13.3419C6.11924 15.4111 7.0605 20.2002 10.7286 25.9657C10.7649 26.0259 10.8053 26.0822 10.8417 26.1425C12.7525 29.0834 18.295 35.9739 31.4323 35.6806C32.2968 34.7686 33.6097 33.0449 35.3064 31.1687C32.5553 26.7451 28.4106 22.8881 25.0576 20.1721Z" fill="url(#paint1_linear_4140_8560)"/>
<path d="M38.3 40.9598C38.3525 38.9991 37.993 37.0666 37.3103 35.1984C35.5853 35.4555 33.6422 35.6323 31.4324 35.6805C29.8246 37.38 26.1525 41.92 20.0686 46.0101C11.9689 51.4582 7.00409 51.1126 7.00409 51.1126C7.00409 51.1126 18.8567 54.7487 28.4632 50.9077C31.9091 49.5296 34.4663 47.802 36.5346 45.8976C36.874 45.5762 38.2273 43.8968 38.3 40.9598Z" fill="url(#paint2_linear_4140_8560)"/>
<path d="M35.3107 31.1685C33.614 33.0407 32.2971 34.7684 31.4366 35.6804C33.6504 35.6322 35.5935 35.4554 37.3144 35.1983C37.1124 34.6398 36.8781 34.0894 36.6196 33.547C36.2318 32.7394 35.7914 31.9439 35.3107 31.1685Z" fill="url(#paint3_linear_4140_8560)"/>
<path d="M45.1594 24.0613C41.6125 25.13 38.0696 26.9179 33.5168 25.4956C31.2627 24.7925 28.2531 22.5948 25.0576 20.1721C28.4106 22.8881 32.5554 26.7411 35.3105 31.1687C37.8232 28.4005 41.1762 25.3068 45.1594 24.0613Z" fill="url(#paint4_linear_4140_8560)"/>
<path d="M37.3142 35.1986C37.9969 37.0668 38.3565 38.9994 38.304 40.96C38.2272 43.893 36.8739 45.5724 36.5345 45.8978C41.3863 41.4341 43.5556 36.0142 48.2821 31.9442C49.1628 31.1889 50.0677 30.6505 50.9524 30.2688H50.9484C47.8499 31.5625 44.4888 34.1218 37.3142 35.1986Z" fill="url(#paint5_linear_4140_8560)"/>
<path d="M56.7332 29.3648C57.3795 29.3648 56.7292 28.6256 56.0747 28.2439C55.5576 27.9385 55.0042 27.6412 54.5881 27.2435C54.1599 26.8337 53.6832 25.7207 53.4933 25.3993C52.9156 24.427 52.0552 23.6717 50.2858 23.4467C48.5083 23.2177 46.8358 23.5632 45.1634 24.0654C41.1802 25.3109 37.8231 28.4046 35.3104 31.1728C35.7912 31.9482 36.2355 32.7397 36.6193 33.5473C36.8778 34.0937 37.1122 34.6442 37.3141 35.1986C44.4928 34.1218 47.8498 31.5625 50.9483 30.2688H50.9523C52.9035 29.4251 54.7295 29.3488 55.8444 29.3648C56.0707 29.3648 56.4746 29.3648 56.7332 29.3648Z" fill="url(#paint6_linear_4140_8560)"/>
<path d="M20.0686 46.0099C26.1525 41.9199 29.8246 37.3798 31.4324 35.6803C18.2952 35.9736 12.7526 29.0832 10.8418 26.1422C14.4493 31.7229 20.0605 36.1504 18.9779 42.3578C17.5761 50.3813 7.00409 51.1125 7.00409 51.1125C7.00409 51.1125 11.9689 51.458 20.0686 46.0099Z" fill="url(#paint7_linear_4140_8560)"/>
<path d="M49.9181 27.4723C50.4982 27.4723 50.9685 27.0082 50.9685 26.4357C50.9685 25.8633 50.4982 25.3992 49.9181 25.3992C49.338 25.3992 48.8678 25.8633 48.8678 26.4357C48.8678 27.0082 49.338 27.4723 49.9181 27.4723Z" fill="white"/>
<defs>
<linearGradient id="paint0_linear_4140_8560" x1="7.0032" y1="32.357" x2="57.001" y2="32.357" gradientUnits="userSpaceOnUse">
<stop stop-color="#2A59A2"/>
<stop offset="1" stop-color="#2A59A2"/>
</linearGradient>
<linearGradient id="paint1_linear_4140_8560" x1="4.98102" y1="23.8674" x2="57.866" y2="23.8674" gradientUnits="userSpaceOnUse">
<stop stop-color="#91D3F2"/>
<stop offset="0.2664" stop-color="#6FB2DE"/>
<stop offset="0.5214" stop-color="#5598CE"/>
<stop offset="0.6729" stop-color="#4B8FC8"/>
</linearGradient>
<linearGradient id="paint2_linear_4140_8560" x1="7.00325" y1="43.9339" x2="57.3681" y2="43.9339" gradientUnits="userSpaceOnUse">
<stop stop-color="#2C9EC7"/>
<stop offset="0.4037" stop-color="#2C63A5"/>
<stop offset="1" stop-color="#395DA1"/>
</linearGradient>
<linearGradient id="paint3_linear_4140_8560" x1="7.00337" y1="33.4252" x2="57.3682" y2="33.4252" gradientUnits="userSpaceOnUse">
<stop stop-color="#4FAAC4"/>
<stop offset="0.00155453" stop-color="#2F75B1"/>
<stop offset="1" stop-color="#356EAC"/>
</linearGradient>
<linearGradient id="paint4_linear_4140_8560" x1="25.0573" y1="25.6728" x2="57.6574" y2="25.6728" gradientUnits="userSpaceOnUse">
<stop stop-color="#4FAAC4"/>
<stop offset="0.00155453" stop-color="#2F81B6"/>
<stop offset="1" stop-color="#3B5EA9"/>
</linearGradient>
<linearGradient id="paint5_linear_4140_8560" x1="25.0564" y1="38.083" x2="57.6564" y2="38.083" gradientUnits="userSpaceOnUse">
<stop stop-color="#4FAAC4"/>
<stop offset="0.00155453" stop-color="#1E3773"/>
<stop offset="1" stop-color="#203370"/>
</linearGradient>
<linearGradient id="paint6_linear_4140_8560" x1="46.1549" y1="40.7914" x2="46.1549" y2="23.0122" gradientUnits="userSpaceOnUse">
<stop stop-color="#4FAAC4"/>
<stop offset="0.00155453" stop-color="#2C5A9A"/>
<stop offset="1" stop-color="#374580"/>
</linearGradient>
<linearGradient id="paint7_linear_4140_8560" x1="1.56638" y1="38.629" x2="38.6647" y2="38.629" gradientUnits="userSpaceOnUse">
<stop offset="0.1115" stop-color="#38B1DA"/>
<stop offset="1" stop-color="#326FB5"/>
</linearGradient>
</defs>
</svg>
