<?xml version="1.0" encoding="utf-8"?><svg width="65" height="65" viewBox="0 0 65 65" fill="none" xmlns="http://www.w3.org/2000/svg">
<path d="M40.3222 23.7174L44.4946 19.545L44.7727 17.7881C37.1694 10.8744 25.0829 11.6584 18.2289 19.4239C16.325 21.5807 14.9126 24.2696 14.1594 27.0463L15.6537 26.8358L23.9984 25.4597L24.6427 24.8008C28.3546 20.7242 34.6308 20.1758 38.9167 23.6443L40.3222 23.7174Z" fill="#EA4335"/>
<path d="M50.4384 26.9237C49.4794 23.392 47.5104 20.217 44.7727 17.7883L38.9167 23.6443C41.3895 25.6648 42.7982 28.7087 42.7378 31.9013V32.9408C45.6161 32.9408 47.9497 35.2742 47.9497 38.1525C47.9497 41.031 45.6161 43.306 42.7378 43.306H32.2995L31.2746 44.4186V50.6698L32.2995 51.6507H42.7378C50.2247 51.709 56.3413 45.7455 56.3996 38.2587C56.4349 33.7206 54.1974 29.4662 50.4384 26.9237Z" fill="#4285F4"/>
<path d="M21.8757 51.6507H32.2994V43.3058H21.8757C21.133 43.3056 20.4138 43.146 19.7384 42.8374L18.2596 43.2912L14.0579 47.4636L13.6919 48.8837C16.0482 50.6629 18.9231 51.6634 21.8757 51.6507Z" fill="#34A853"/>
<path d="M21.8757 24.5813C14.3887 24.6259 8.35568 30.7316 8.4003 38.2185C8.42524 42.3994 10.3779 46.335 13.6919 48.8837L19.7384 42.8374C17.1151 41.6522 15.9494 38.565 17.1346 35.9419C18.3196 33.3188 21.407 32.1531 24.0299 33.3381C25.1859 33.8603 26.1116 34.7861 26.6337 35.9419L32.6803 29.8956C30.1076 26.5324 26.1101 24.5661 21.8757 24.5813Z" fill="#FBBC05"/>
</svg>
