<?xml version="1.0" encoding="utf-8"?><svg width="65" height="65" viewBox="0 0 65 65" fill="none" xmlns="http://www.w3.org/2000/svg">
<g clip-path="url(#clip0_4140_8433)">
<path fill-rule="evenodd" clip-rule="evenodd" d="M32.2008 9.50148C19.5785 9.50148 9.34302 19.9939 9.34302 32.9367C9.34302 43.2906 15.8923 52.0744 24.9737 55.1739C26.116 55.3913 26.5361 54.666 26.5361 54.0466C26.5361 53.487 26.5152 51.6425 26.5047 49.6839C20.1451 51.1006 18.8039 46.9185 18.8039 46.9185C17.7649 44.2102 16.2653 43.4889 16.2653 43.4889C14.1925 42.0356 16.4223 42.0641 16.4223 42.0641C18.7175 42.2298 19.9266 44.4791 19.9266 44.4791C21.9653 48.0622 25.2733 47.0272 26.578 46.4282C26.7834 44.9137 27.3762 43.8787 28.0291 43.2947C22.952 42.7011 17.6157 40.6923 17.6157 31.7129C17.6157 29.154 18.5081 27.0636 19.9711 25.4229C19.7329 24.832 18.9504 22.4483 20.1922 19.2211C20.1922 19.2211 22.1106 18.5909 26.4785 21.6225C28.3447 21.1021 30.2684 20.8373 32.2008 20.8347C34.1427 20.8429 36.1003 21.1036 37.9257 21.6225C42.2884 18.5909 44.2068 19.2211 44.2068 19.2211C45.4499 22.4483 44.6674 24.832 44.4292 25.4229C45.8948 27.0636 46.782 29.154 46.782 31.7116C46.782 40.714 41.4353 42.6957 36.345 43.2757C37.1655 44.0023 37.8956 45.4285 37.8956 47.6153C37.8956 50.7515 37.8695 53.2751 37.8695 54.0466C37.8695 54.67 38.2803 55.4008 39.4397 55.1712C48.5159 52.069 55.0573 43.2852 55.0573 32.9353C55.0573 19.9912 44.8244 9.50148 32.2008 9.50148Z" fill="#161514"/>
<path fill-rule="evenodd" clip-rule="evenodd" d="M18.0006 43.1494C17.9496 43.2648 17.7716 43.3002 17.608 43.22C17.4431 43.144 17.3502 42.985 17.4039 42.8682C17.4523 42.7487 17.6316 42.7147 17.7965 42.7949C17.9626 42.8723 18.0582 43.0326 18.0006 43.148M18.9257 44.2088C18.8171 44.3107 18.6038 44.2631 18.4599 44.1002C18.3094 43.9372 18.2819 43.7171 18.3919 43.6112C18.5044 43.5093 18.7111 43.5569 18.8616 43.7198C19.0108 43.8856 19.0396 44.1029 18.927 44.2088M19.8273 45.5576C19.6873 45.6567 19.4583 45.563 19.317 45.3552C19.177 45.1474 19.177 44.8974 19.3196 44.7969C19.4622 44.6964 19.6873 44.7861 19.8299 44.9939C19.97 45.2058 19.97 45.4557 19.8273 45.5576ZM21.0626 46.8615C20.937 47.0027 20.67 46.9647 20.4738 46.7718C20.2749 46.5817 20.2186 46.3141 20.3442 46.1728C20.4711 46.0302 20.7394 46.071 20.937 46.2625C21.1346 46.4513 21.1961 46.7229 21.0626 46.8615ZM22.765 47.618C22.7101 47.8014 22.4536 47.8856 22.1945 47.8082C21.9354 47.7267 21.7666 47.5121 21.819 47.326C21.8713 47.1413 22.1304 47.0544 22.3908 47.1386C22.6499 47.2187 22.8187 47.4319 22.765 47.618ZM24.635 47.7593C24.6428 47.9521 24.423 48.1124 24.1508 48.1165C23.8773 48.1219 23.6562 47.9657 23.6535 47.7756C23.6535 47.58 23.8681 47.4224 24.1416 47.417C24.4138 47.4116 24.635 47.5664 24.635 47.7593ZM26.3766 47.455C26.4094 47.6438 26.2196 47.8367 25.9501 47.8897C25.6857 47.9386 25.4397 47.8218 25.4057 47.6357C25.373 47.4414 25.5653 47.2486 25.8297 47.1983C26.1005 47.1494 26.3426 47.2635 26.3766 47.455Z" fill="#161514"/>
</g>
<defs>
<clipPath id="clip0_4140_8433">
<path d="M0.199951 8.35742C0.199951 3.93914 3.78167 0.357422 8.19995 0.357422H56.2C60.6182 0.357422 64.2 3.93914 64.2 8.35742V56.3574C64.2 60.7757 60.6182 64.3574 56.2 64.3574H8.19995C3.78167 64.3574 0.199951 60.7757 0.199951 56.3574V8.35742Z" fill="white"/>
</clipPath>
</defs>
</svg>
