<?xml version="1.0" encoding="utf-8"?><svg width="64" height="65" viewBox="0 0 64 65" fill="none" xmlns="http://www.w3.org/2000/svg">
<path d="M56.3566 35.5143L53.6153 27.2939L48.1956 10.986C48.1315 10.8014 48.0111 10.6415 47.8514 10.5287C47.6917 10.416 47.5007 10.3561 47.3052 10.3574C47.1103 10.3568 46.9201 10.4171 46.7611 10.5297C46.602 10.6424 46.4822 10.8019 46.4182 10.986L40.9985 27.2835H22.9969L17.5772 10.9825C17.5131 10.7988 17.3931 10.6398 17.2341 10.5277C17.075 10.4156 16.8848 10.356 16.6903 10.3574C16.4953 10.3563 16.3048 10.4163 16.1457 10.5291C15.9866 10.6418 15.8668 10.8016 15.8033 10.986L10.3906 27.2835L7.6528 35.5143C7.53164 35.881 7.53175 36.277 7.65313 36.6436C7.77451 37.0103 8.01071 37.3281 8.32677 37.5501L32.003 54.3539L55.6722 37.5501C55.9896 37.3292 56.2276 37.012 56.3509 36.6453C56.4741 36.2787 56.4761 35.8821 56.3566 35.5143Z" fill="#FC6D26"/>
<path d="M31.9995 54.3436L41.0021 27.2802H23.0005L31.9995 54.3436Z" fill="#E24329"/>
<path d="M31.9993 54.3436L22.9933 27.2802H10.3939L31.9993 54.3436Z" fill="#FC6D26"/>
<path d="M10.3836 27.2904L7.64584 35.5107C7.52468 35.8775 7.52479 36.2734 7.64617 36.6401C7.76756 37.0068 8.00375 37.3246 8.31981 37.5466L31.9995 54.3574L10.3836 27.2939V27.2904Z" fill="#FCA326"/>
<path d="M10.3906 27.2902H23.004L17.5773 10.9927C17.5133 10.8086 17.3934 10.6491 17.2344 10.5364C17.0754 10.4238 16.8852 10.3635 16.6903 10.3642C16.4948 10.3628 16.3038 10.4227 16.1441 10.5354C15.9844 10.6482 15.864 10.8081 15.7998 10.9927L10.3906 27.2902Z" fill="#E24329"/>
<path d="M31.9995 54.3436L41.002 27.2802H53.6224L31.9995 54.3436Z" fill="#FC6D26"/>
<path d="M53.6154 27.2904L56.3497 35.5107C56.4714 35.8774 56.4716 36.2736 56.3502 36.6404C56.2287 37.0072 55.9922 37.325 55.6757 37.5466L31.9995 54.3434L53.6084 27.2904H53.6154Z" fill="#FCA326"/>
<path d="M53.6153 27.2902H41.0089L46.4251 10.9927C46.4888 10.8078 46.6091 10.6476 46.7689 10.5348C46.9287 10.422 47.12 10.3623 47.3156 10.3642C47.7172 10.3642 48.0734 10.6191 48.2026 10.9927L53.6222 27.2902H53.6153Z" fill="#E24329"/>
</svg>
