<?xml version="1.0" encoding="utf-8"?><svg width="65" height="65" viewBox="0 0 65 65" fill="none" xmlns="http://www.w3.org/2000/svg">
<path d="M36.2417 25.8982C36.2417 25.8982 38.9444 26.749 42.5664 27.9015C42.3649 28.834 40.5539 30.6186 38.2253 29.8508C35.1209 28.8893 36.2417 25.8982 36.2417 25.8982Z" fill="white"/>
<path d="M39.478 29.264C40.3778 29.1684 41.0359 28.4189 40.9478 27.5899C40.8597 26.761 40.0588 26.1665 39.159 26.2622C38.2592 26.3578 37.6011 27.1073 37.6892 27.9362C37.7773 28.7652 38.5782 29.3596 39.478 29.264Z" fill="#02303A"/>
<path d="M58.2106 29.6534C59.4342 26.9336 59.4026 24.2428 58.669 22.1144C57.7523 19.5131 53.9933 16.0821 52.8001 17.4427C52.6473 17.6205 50.4767 17.3847 50.1395 17.8273C49.6206 18.4779 49.9262 18.6847 50.1712 18.9205C50.9351 19.5724 52.8606 20.281 53.7484 22.499C54.1145 23.4446 54.9706 25.6336 53.4718 26.9639C51.7912 28.4403 49.8959 28.7946 42.1317 21.818C33.8775 14.3976 22.8114 17.4137 19.1434 18.5965C15.4753 19.7792 13.7934 20.9619 15.2303 23.6804C17.1862 27.4064 16.5448 26.2526 18.4703 29.328C21.497 34.2052 28.1614 27.0811 28.1614 27.0811C23.2092 34.2947 18.9603 32.5509 17.339 30.0379C15.8717 27.7607 14.7417 25.1595 14.7417 25.1595C2.20832 29.5348 5.60113 48.8103 5.60113 48.8103H11.8375C13.4272 41.7152 19.1131 41.9812 20.06 48.8103H24.7989C28.9872 34.9454 37.9737 48.8103 37.9737 48.8103H43.2934C43.2934 41.4188 42.4978 38.6398 46.4109 38.1077C53.0753 37.2516 56.1929 34.2355 58.2119 29.652L58.2106 29.6534Z" fill="#02303A"/>
<path d="M36.2417 25.8982C36.2417 25.8982 38.9444 26.749 42.5664 27.9015C42.3649 28.834 40.5539 30.6186 38.2253 29.8508C35.1209 28.8893 36.2417 25.8982 36.2417 25.8982Z" fill="white"/>
<path d="M39.478 29.264C40.3778 29.1684 41.0359 28.4189 40.9478 27.5899C40.8597 26.761 40.0588 26.1665 39.159 26.2622C38.2592 26.3578 37.6011 27.1073 37.6892 27.9362C37.7773 28.7652 38.5782 29.3596 39.478 29.264Z" fill="#02303A"/>
<path d="M50.6847 18.6097C50.9007 18.7993 51.1773 18.9877 51.4539 19.176C52.7433 18.0762 54.4331 18.1078 55.8767 17.5099C54.6175 16.3153 52.5892 15.4039 51.9755 16.1586C51.8214 16.3469 51.0232 16.9752 50.6847 17.4467C50.1316 18.1381 50.4081 18.3581 50.6847 18.6097Z" fill="#02303A"/>
</svg>
