<?xml version="1.0" encoding="utf-8"?><svg width="64" height="65" viewBox="0 0 64 65" fill="none" xmlns="http://www.w3.org/2000/svg">
<path d="M55.5 33.426C55.5 29.7544 54.5379 26.3041 52.8542 23.3071C60.0341 7.24412 45.16 9.59828 44.3319 9.75863C41.3099 10.3441 38.3699 11.2934 35.5761 12.5855C35.1774 12.5634 34.7782 12.5523 34.379 12.5524C24.3431 12.5524 15.9425 19.4697 13.7915 28.7453C19.0818 22.88 22.7838 20.5134 25.0011 19.5664C24.6472 19.8789 24.3002 20.194 23.9602 20.5134C23.8468 20.6184 23.7362 20.7262 23.6256 20.8327C23.4003 21.0456 23.1764 21.2612 22.9566 21.4755C22.8266 21.604 22.6994 21.734 22.5723 21.8625C22.3787 22.0588 22.1838 22.2537 21.9944 22.45C21.859 22.5883 21.7277 22.7293 21.5963 22.8689C20.8175 23.6898 20.0656 24.5358 19.3417 25.4055C19.0711 25.728 18.8038 26.0534 18.5399 26.3815C18.41 26.5446 18.2773 26.7091 18.1501 26.8722C18.0285 27.027 17.9096 27.1818 17.7907 27.3381C17.6552 27.5136 17.5184 27.6878 17.3871 27.8634C17.2931 27.9878 17.2032 28.1122 17.1106 28.2366C16.3152 29.309 15.5531 30.4057 14.8255 31.5252L14.82 31.5321C14.6403 31.8114 14.4648 32.0865 14.2933 32.3602L14.2657 32.4044C14.0929 32.6781 13.927 32.9463 13.7653 33.2131L13.7487 33.2407C13.3365 33.9196 12.9365 34.6059 12.5488 35.299C10.6467 38.7052 9.7205 41.0856 9.68041 41.2266C3.67269 62.4513 22.4202 53.4881 25.037 52.1514C27.9465 53.5705 31.1419 54.3057 34.379 54.3009C43.562 54.3009 51.3764 48.5061 54.2849 40.4165H43.1873C41.5451 43.1577 38.3837 45.0142 34.7522 45.0142C29.4301 45.0142 25.1172 41.0303 25.1172 36.1146H55.3258C55.4406 35.2341 55.5 34.3369 55.5 33.426ZM51.5534 12.8841C53.3726 14.0978 54.8309 16.0027 52.3261 22.4196C49.8918 18.5597 46.2736 15.5913 42.0123 13.9582C43.9656 13.0251 48.8066 11.0525 51.5534 12.8841ZM12.9027 52.1085C11.4194 50.6059 11.1582 46.9495 14.4274 40.2852C16.0848 44.9581 19.3428 48.8934 23.6242 51.3938C21.5079 52.5453 15.8913 55.1372 12.9027 52.1085ZM25.0702 30.4055C25.2388 25.6281 29.4453 21.8031 34.614 21.8031C39.7826 21.8031 43.9891 25.6281 44.1591 30.4055H25.0702Z" fill="#1EBBEE"/>
</svg>
