<?xml version="1.0" encoding="utf-8"?><svg width="65" height="65" viewBox="0 0 65 65" fill="none" xmlns="http://www.w3.org/2000/svg">
<path fill-rule="evenodd" clip-rule="evenodd" d="M49.9784 31.4867C49.9784 40.9969 42.4125 48.7062 33.0801 48.7062C23.7466 48.7062 16.1818 40.998 16.1818 31.4867C16.1818 21.9777 23.7466 14.2672 33.0801 14.2672C42.4125 14.2672 49.9784 21.9765 49.9784 31.4867Z" fill="#D33833"/>
<path d="M16.8707 35.7512C16.8707 35.7512 15.6468 17.7941 32.2561 17.2814L31.0975 15.3578L22.0852 18.3722L19.5101 21.3213L17.2573 25.6193L15.9691 30.6204L16.3557 33.956" fill="#EF3D3A"/>
<path d="M21.5057 19.7397C18.4171 22.8938 16.6932 27.1364 16.7065 31.5509C16.7065 36.1666 18.5418 40.3396 21.5057 43.3609C24.4731 46.3834 28.5601 48.2474 33.0795 48.2474C37.5988 48.2474 41.6881 46.3834 44.6543 43.3609C47.7428 40.2072 49.4667 35.9651 49.4536 31.5509C49.4536 26.9352 47.6183 22.7622 44.6543 19.7397C41.6881 16.7196 37.6 14.8545 33.0806 14.8533C28.5612 14.8545 24.472 16.7196 21.5057 19.7397ZM20.7556 44.0916C17.4756 40.7428 15.6443 36.2384 15.6569 31.5509C15.6569 26.6564 17.6046 22.2208 20.7556 19.0102C23.9065 15.7985 28.2664 13.8083 33.0806 13.8083C37.8936 13.8083 42.2547 15.7985 45.4045 19.0102C48.685 22.3587 50.5168 26.8632 50.5043 31.5509C50.5043 36.4454 48.5554 40.8821 45.4045 44.0927C42.2547 47.3033 37.8936 49.2935 33.0806 49.2935C28.2664 49.2935 23.9065 47.3022 20.7556 44.0916Z" fill="#231F20"/>
<path fill-rule="evenodd" clip-rule="evenodd" d="M40.1929 31.583L37.6178 31.9672L34.1422 32.3515L31.8883 32.4157L29.6997 32.3515L28.025 31.8388L26.5453 30.2352L25.3868 26.965L25.1287 26.2595L23.5836 25.7468L22.6832 24.2717L22.0386 22.1554L22.7475 20.2949L24.421 19.7179L25.7734 20.3603L26.4157 21.7711L27.1888 21.6415L27.4469 21.3203L27.1888 19.8464L27.1246 17.9859L27.5111 15.4211L27.4962 13.9563L28.6697 12.0866L30.7298 10.6115L34.3349 9.07214L38.3267 9.64911L41.8022 12.1497L43.4127 14.7156L44.4416 16.575L44.6997 21.193L43.9266 25.1698L42.5111 28.697L41.1587 30.5564" fill="#F0D6B7"/>
<path fill-rule="evenodd" clip-rule="evenodd" d="M38.0049 42.6773L28.7987 43.0615V44.6009L29.5718 49.9886L29.1852 50.437L22.748 48.2577L22.2972 47.4868L21.6537 40.2398L20.1729 35.8787L19.8517 34.8532L25.0008 31.3261L26.6101 30.6837L28.0267 32.4158L29.2495 33.5055L30.6661 33.9551L31.3096 34.1478L32.0827 37.4823L32.6619 38.1877L34.1416 37.675L33.1127 39.6628L38.7126 42.2918L38.0049 42.6773Z" fill="#335061"/>
<path fill-rule="evenodd" clip-rule="evenodd" d="M22.7482 20.2951L24.4217 19.7181L25.7741 20.3604L26.4165 21.7713L27.1896 21.6417L27.3834 20.8732L26.9969 19.3981L27.3834 15.8697L27.0611 13.9461L28.2196 12.5995L30.7317 10.6117L30.0228 9.64929L26.4818 11.3813L25.001 12.5353L24.1637 14.3315L22.8767 16.0636L22.4901 18.1145L22.7482 20.2951Z" fill="#6D6B6D"/>
<path fill-rule="evenodd" clip-rule="evenodd" d="M25.3876 14.2673C25.3876 14.2673 26.3534 11.8941 30.2155 10.7402C34.0776 9.58508 30.4082 9.90625 30.4082 9.90625L26.2238 11.5098L24.6144 13.1123L23.9067 14.3958L25.3876 14.2673ZM23.4559 19.8466C23.4559 19.8466 22.1036 15.357 27.2538 14.7158L27.0611 13.9473L23.5202 14.7801L22.4901 18.1145L22.7482 20.2951L23.4559 19.8466Z" fill="#DCD9D8"/>
<path fill-rule="evenodd" clip-rule="evenodd" d="M25.5157 25.8111L26.3588 24.9967C26.3588 24.9967 26.7396 25.0415 26.8039 25.49C26.8681 25.9385 27.0608 29.9795 29.8287 32.1601C30.081 32.3585 27.7686 31.8389 27.7686 31.8389L25.7085 28.6329M37.3613 24.5918C37.3613 24.5918 37.5104 22.6487 38.0381 22.7978C38.5623 22.947 38.5623 23.4712 38.5623 23.4712C38.5623 23.4712 37.2868 24.2936 37.3613 24.5918Z" fill="#F7E4CD"/>
<path d="M42.7046 17.4734C42.7046 17.4734 41.6436 17.6971 41.5461 18.6285C41.4486 19.5599 42.7046 18.82 42.8973 18.7569M34.915 17.5376C34.915 17.5376 33.4984 17.7303 33.4984 18.6273C33.4984 19.5255 35.1089 19.4624 35.5585 19.077" fill="#F7E4CD"/>
<path fill-rule="evenodd" clip-rule="evenodd" d="M26.1595 21.7057C26.1595 21.7057 23.7129 20.2306 23.4559 21.6426C23.199 23.0535 22.6186 24.079 23.8425 25.5541L23.0051 25.2971L22.2332 23.3093L21.9751 21.3857L23.4559 19.8464L25.1306 19.9748L26.0953 20.7433L26.1595 21.7057ZM27.3181 17.6658C27.3181 17.6658 28.4135 12.0223 33.9491 10.9326C38.5075 10.0345 40.9026 11.1242 41.803 12.1508C41.803 12.1508 37.7482 7.34123 33.8849 8.81518C30.0228 10.2903 27.1896 12.9847 27.255 14.7156C27.3639 17.6647 27.3181 17.6658 27.3181 17.6658ZM42.2549 12.792C42.2549 12.792 40.3875 12.7278 40.3233 14.3956C40.3233 14.3956 40.3233 14.6514 40.4518 14.9083C40.4518 14.9083 41.9315 13.2405 42.833 14.1386" fill="#F7E4CD"/>
<path fill-rule="evenodd" clip-rule="evenodd" d="M34.0783 15.0816C34.0783 15.0816 33.7572 12.5225 31.5663 14.0103C30.1508 14.9726 30.2793 16.3193 30.5374 16.5751C30.7943 16.832 30.7244 17.3493 30.9205 16.9937C31.1155 16.6393 31.0524 15.4854 31.7601 15.1642C32.4679 14.843 33.6298 14.4863 34.0783 15.0816Z" fill="#F7E4CD"/>
<path fill-rule="evenodd" clip-rule="evenodd" d="M28.0263 32.4159L21.9744 35.1103C21.9744 35.1103 24.4865 45.0506 23.1983 48.1293L22.2968 47.8081L22.2325 44.024L20.5578 36.8412L19.8501 34.8533L26.1589 30.6207L28.0263 32.4159ZM28.648 37.9148L29.5071 38.9586V42.8058H28.4771C28.4771 42.8058 28.3486 40.1126 28.3486 39.7914C28.3486 39.4702 28.4771 38.3163 28.4771 38.3163M28.6698 43.3839L25.7735 43.5101L26.6108 44.0882L28.6698 44.4094" fill="#49728B"/>
<path fill-rule="evenodd" clip-rule="evenodd" d="M38.584 42.7417L40.9664 42.6775L41.5457 48.5779L39.099 48.8991L38.584 42.7417Z" fill="#335061"/>
<path fill-rule="evenodd" clip-rule="evenodd" d="M39.2275 42.7415L42.8327 42.5488C42.8327 42.5488 44.3136 38.829 44.3136 38.6374C44.3136 38.4447 45.6017 33.2497 45.6017 33.2497L42.7042 30.2364L42.125 29.7225L40.5799 31.2619V37.2265L39.2275 42.7415Z" fill="#335061"/>
<path fill-rule="evenodd" clip-rule="evenodd" d="M40.8368 42.293L38.584 42.7415L38.9052 44.5378C39.7425 44.9221 41.1591 43.8955 41.1591 43.8955M40.901 31.0692L45.4089 34.4048L45.5374 32.8654L42.1249 29.7225L40.901 31.0692Z" fill="#49728B"/>
<path fill-rule="evenodd" clip-rule="evenodd" d="M30.9044 55.3761L29.5716 49.9884L28.9086 46.0127L28.7985 43.0614L34.8319 42.7425L38.5839 42.7413L38.2433 49.4757L38.8225 54.6706L38.7583 55.633L33.8661 56.0173L30.9044 55.3761Z" fill="white"/>
<path fill-rule="evenodd" clip-rule="evenodd" d="M37.7467 42.6773C37.7467 42.6773 37.4256 49.3474 38.3914 54.0927C38.3914 54.0927 36.4598 55.312 33.6277 55.632L39.0349 55.4393L39.6784 55.0551L38.9064 44.5366L38.7126 42.2919" fill="#DCD9D8"/>
<path fill-rule="evenodd" clip-rule="evenodd" d="M41.6563 48.0649L44.166 47.3594L48.9297 47.1025L49.6386 44.9231L48.3505 41.1378L46.8708 40.9463L44.8107 41.5886L42.8332 42.5487L41.7848 42.3572L40.9669 42.6783" fill="white"/>
<path fill-rule="evenodd" clip-rule="evenodd" d="M41.6104 46.7813C41.6104 46.7813 43.2839 46.0128 43.542 46.0759L42.8331 42.5487L43.6704 42.2275C43.6704 42.2275 44.2497 45.5632 44.2497 45.9486C44.2497 45.9486 47.8549 46.1401 48.1772 46.1401C48.1772 46.1401 48.9492 44.665 48.7565 43.1257L49.4642 45.1789L49.5284 46.3328L48.4984 47.8722L47.3399 48.128L45.4082 48.0649L44.7659 47.231L42.5119 47.5521L41.8031 47.8079" fill="#DCD9D8"/>
<path d="M39.08 42.2289L37.6646 38.6386L36.1837 36.5212C36.1837 36.5212 36.5049 35.623 36.9557 35.623H38.4365L39.8531 36.1369L39.7247 38.509L39.08 42.2289Z" fill="white"/>
<path fill-rule="evenodd" clip-rule="evenodd" d="M39.357 41.0095C39.357 41.0095 37.5538 37.5466 37.5538 37.0338C37.5538 37.0338 37.875 36.2653 38.3269 36.4569C38.7777 36.6496 39.7424 37.1623 39.7424 37.1623V35.9441L37.5538 35.4945L36.0741 35.6872L38.5838 41.5876L39.1 41.6519" fill="#DCD9D8"/>
<path d="M31.4839 32.5443L29.7002 32.3516L28.0255 31.8389V32.4158L28.8445 33.3151L31.4196 34.469" fill="white"/>
<path fill-rule="evenodd" clip-rule="evenodd" d="M28.6055 32.7371C28.6055 32.7371 30.6014 33.571 31.2449 33.3794L31.3091 34.1479L29.5071 33.7637L28.4128 32.9951L28.6055 32.7371Z" fill="#DCD9D8"/>
<path fill-rule="evenodd" clip-rule="evenodd" d="M41.6481 35.8418C40.5561 35.8097 39.5697 35.6812 38.7048 35.4381C38.7644 35.0848 38.6543 34.7384 38.7426 34.4837C38.9835 34.3117 39.3873 34.3139 39.7509 34.2738C39.4013 34.11 39.0075 34.0657 38.6302 34.1476C38.6222 33.9022 38.5121 33.7507 38.4456 33.5592C39.0592 33.3412 40.5091 31.9097 41.3247 32.3835C41.7135 32.6083 41.8787 33.8976 41.9085 34.5227C41.9337 35.0423 41.8615 35.5665 41.6481 35.8418Z" fill="#D33833"/>
<path fill-rule="evenodd" clip-rule="evenodd" d="M41.6481 35.8418C40.5561 35.8097 39.5697 35.6812 38.7048 35.4381C38.7644 35.0848 38.6543 34.7384 38.7426 34.4837C38.9835 34.3117 39.3873 34.3139 39.7509 34.2738C39.4013 34.11 39.0075 34.0657 38.6302 34.1476C38.6222 33.9022 38.5121 33.7507 38.4456 33.5592C39.0592 33.3412 40.5091 31.9097 41.3247 32.3835C41.7135 32.6083 41.8787 33.8976 41.9085 34.5227C41.9337 35.0423 41.8615 35.5665 41.6481 35.8418Z" stroke="#D33833" stroke-width="4.21875"/>
<path fill-rule="evenodd" clip-rule="evenodd" d="M36.425 34.0627L36.4147 34.3105C36.074 34.5342 35.5234 34.5319 35.1483 34.7189C35.7001 34.743 36.1348 34.876 36.511 35.063L36.487 35.6847C35.8618 36.1102 35.2906 36.7457 34.5542 37.1449C34.2066 37.3341 32.985 37.8216 32.6145 37.7345C32.4046 37.6863 32.3851 37.427 32.3025 37.1839C32.1236 36.6608 31.7129 35.8281 31.6774 35.0412C31.6315 34.0478 31.5306 32.3823 32.6065 32.5865C33.4737 32.7517 34.4831 33.1486 35.1541 33.5156C35.5647 33.7381 35.8022 34.0146 36.425 34.0627Z" fill="#D33833"/>
<path fill-rule="evenodd" clip-rule="evenodd" d="M36.425 34.0627L36.4147 34.3105C36.074 34.5342 35.5234 34.5319 35.1483 34.7189C35.7001 34.743 36.1348 34.876 36.511 35.063L36.487 35.6847C35.8618 36.1102 35.2906 36.7457 34.5542 37.1449C34.2066 37.3341 32.985 37.8216 32.6145 37.7345C32.4046 37.6863 32.3851 37.427 32.3025 37.1839C32.1236 36.6608 31.7129 35.8281 31.6774 35.0412C31.6315 34.0478 31.5306 32.3823 32.6065 32.5865C33.4737 32.7517 34.4831 33.1486 35.1541 33.5156C35.5647 33.7381 35.8022 34.0146 36.425 34.0627Z" stroke="#D33833" stroke-width="4.21875"/>
<path fill-rule="evenodd" clip-rule="evenodd" d="M37.046 35.2488C36.9508 34.7074 36.8396 34.5526 36.8832 34.08C38.3319 33.1176 38.6037 35.734 37.046 35.2488Z" fill="#D33833"/>
<path fill-rule="evenodd" clip-rule="evenodd" d="M37.046 35.2488C36.9508 34.7074 36.8396 34.5526 36.8832 34.08C38.3319 33.1176 38.6037 35.734 37.046 35.2488Z" stroke="#D33833" stroke-width="4.21875"/>
<path fill-rule="evenodd" clip-rule="evenodd" d="M39.145 35.6869C39.145 35.6869 38.6942 35.0457 39.0154 34.853C39.3365 34.6615 39.66 34.853 39.8527 34.533C40.0454 34.2118 39.8527 34.0203 39.917 33.6349C39.9812 33.2506 40.3035 33.1864 40.6247 33.1221C40.9459 33.0579 41.8486 32.9294 41.9771 33.2506L41.5905 32.0955L40.8185 31.8397L38.3719 33.2506L38.2434 33.956V35.3669M32.3854 37.8032C32.3085 36.8028 32.2248 35.803 32.1342 34.8037C31.9989 33.3102 32.4944 33.5706 33.794 33.5706C33.9924 33.5706 35.0156 33.8069 35.089 33.956C35.44 34.6706 34.5017 34.5112 35.4928 35.0503C36.3301 35.5045 37.8098 34.775 37.4703 33.7633C37.281 33.5385 36.4838 33.6945 36.1994 33.5454L34.6898 32.7665C34.0498 32.4362 32.5712 31.9533 31.8888 32.4155C30.1602 33.5867 31.9977 36.5128 32.6148 37.7344" fill="#EF3D3A"/>
<path fill-rule="evenodd" clip-rule="evenodd" d="M34.0782 15.0815C32.3232 14.6743 31.4514 15.8133 30.9203 16.9936C30.4455 16.8789 30.6336 16.2366 30.754 15.9085C31.0683 15.0482 32.3347 13.9023 33.3693 14.0583C33.8132 14.1249 34.4154 14.5298 34.0782 15.0815ZM42.6283 17.0728L42.7109 17.0751C43.1077 17.8964 43.4507 18.7658 43.9508 19.4896C43.6159 20.2673 41.4135 20.9555 41.448 19.5584C41.924 19.352 42.7464 19.5171 43.1685 19.2522C42.9242 18.5846 42.5721 18.0168 42.6283 17.0728ZM34.9775 17.0934C35.3537 17.7816 35.4753 18.502 36.0098 19.0216C36.2507 19.2556 36.7198 19.5401 36.487 20.1916C36.4331 20.3442 36.0362 20.6848 35.8079 20.7537C34.9717 20.9991 33.024 20.8041 33.6836 19.7649C34.3753 19.797 35.3044 20.2122 35.8205 19.7121C35.4237 19.0813 34.7171 17.831 34.9775 17.0934ZM42.314 24.0767C41.0557 24.8819 39.6517 25.7582 37.5881 25.5552C37.1477 25.1732 36.9802 24.3233 37.4081 23.7624C37.6317 24.1443 37.4906 24.8463 38.1123 24.9519C39.2823 25.1514 40.645 24.2384 41.487 23.9195C42.0089 23.0432 41.4411 22.7208 40.9708 22.1565C40.0084 21.0003 38.7168 19.5676 38.7639 17.8367C39.1539 17.5557 39.1871 18.2657 39.2422 18.3953C39.7457 19.5665 41.0109 21.0656 41.9343 22.0693C42.1603 22.3159 42.5342 22.5534 42.5755 22.7163C42.6948 23.1911 42.2635 23.7601 42.314 24.0767ZM25.7185 23.2278C25.3239 23.0042 25.2298 22.0154 24.7664 21.9879C24.1046 21.9477 24.2262 23.2703 24.2273 24.0422C23.7731 23.6304 23.6928 22.3618 24.0277 21.7103C23.6458 21.5233 23.4749 21.9168 23.2638 22.0544C23.5356 20.0861 26.1544 21.1414 25.7185 23.2278ZM43.1146 24.8956C42.5296 26.0071 41.7003 27.231 39.9809 27.2666C39.9465 26.9076 39.9189 26.3616 39.9832 26.1459C41.2977 26.0198 42.1087 25.3533 43.1146 24.8956ZM34.8788 25.616C35.9742 26.1907 37.9896 26.2526 39.4808 26.209C39.5611 26.5348 39.5588 26.9362 39.5611 27.3331C37.6455 27.4283 35.3812 26.9557 34.8788 25.616ZM34.6689 26.6873C35.4282 28.5846 38.0343 28.3666 40.2321 28.3139C40.1357 28.5605 39.9258 28.8507 39.6654 28.9562C38.9612 29.2418 37.0181 29.4586 36.0408 28.9413C35.4202 28.6121 35.021 27.8699 34.6815 27.4352C34.5175 27.2253 33.7008 26.6896 34.6701 26.6873" fill="#231F20"/>
<path fill-rule="evenodd" clip-rule="evenodd" d="M42.2225 37.1508C41.3324 38.6694 40.4813 40.2283 39.426 41.568C39.8676 40.2719 40.0569 38.1017 40.1246 36.4465C41.0502 36.0152 41.8429 36.544 42.2225 37.1508Z" fill="#81B0C4"/>
<path fill-rule="evenodd" clip-rule="evenodd" d="M47.0115 42.6083C46.0148 42.8067 45.3151 43.7714 44.3435 43.7094C44.8769 42.9593 45.814 42.6427 47.0115 42.6083ZM47.4509 44.1614C46.6388 44.2463 45.6844 44.3782 44.862 44.3105C45.252 43.7175 46.7546 43.9216 47.4509 44.1614ZM47.733 45.5011C46.82 45.5206 45.6856 45.5011 44.8184 45.43C45.3311 44.8806 47.1423 45.2258 47.733 45.5011Z" fill="#231F20"/>
<path fill-rule="evenodd" clip-rule="evenodd" d="M40.5054 49.1652C40.6361 50.3076 41.0904 51.465 41.033 52.7153C40.5283 52.8851 40.2393 53.033 39.5636 53.0319C39.5155 51.9697 39.3732 50.3443 39.4145 49.3315C39.7472 49.3544 40.2381 49.0941 40.5054 49.1652Z" fill="#DCD9D8"/>
<path fill-rule="evenodd" clip-rule="evenodd" d="M39.0338 32.3365C38.575 32.6348 38.185 33.0064 37.7457 33.3253C36.7695 33.3723 36.2361 33.2565 35.5204 32.699C35.5319 32.6543 35.603 32.6738 35.6064 32.6187C36.6502 33.0833 37.9785 32.4306 39.0338 32.3365Z" fill="#F0D6B7"/>
<path fill-rule="evenodd" clip-rule="evenodd" d="M33.5486 39.4309C33.8353 38.1921 34.9606 37.5498 35.9826 36.8684C37.0368 38.2013 37.678 39.915 38.3834 41.569C36.7156 41.0689 35.0111 40.2556 33.5486 39.4309Z" fill="#81B0C4"/>
<path fill-rule="evenodd" clip-rule="evenodd" d="M39.4157 49.3314C39.3732 50.3443 39.5155 51.9697 39.5636 53.0318C40.2393 53.033 40.5295 52.885 41.0342 52.7152C41.0915 51.465 40.6361 50.3076 40.5054 49.1663C40.2381 49.0951 39.7483 49.3532 39.4157 49.3314ZM28.8869 43.5698C29.3331 47.6533 29.9789 51.0853 31.1627 54.7008C33.7917 55.4957 36.961 55.5657 39.2838 54.8476C38.8582 52.807 39.044 50.3225 38.7951 48.1454C38.607 46.5086 38.7034 44.8614 38.4453 43.1901C35.6293 42.6074 31.6501 43.0559 28.8869 43.5698ZM39.1106 43.2165C39.0876 44.9704 39.1897 46.7001 39.3239 48.4562C40.0007 48.3553 40.4595 48.2876 41.0869 48.15C40.8827 46.4604 40.908 44.5574 40.4927 43.0628C40.0121 43.0674 39.59 43.0571 39.1106 43.2165ZM42.5402 42.9343C42.2191 42.8609 41.8451 42.9309 41.5389 42.9366C41.6834 44.367 42.0321 45.9442 42.156 47.4445C42.6377 47.4595 42.8958 47.2335 43.2915 47.1578C43.3145 45.8387 43.1768 44.0252 42.5402 42.9343ZM47.7318 47.6602C48.7366 47.417 49.3698 46.1897 49.0876 44.9302C48.8995 44.0837 48.5634 42.4904 48.2044 41.9479C47.9382 41.5476 47.2179 41.0234 46.6421 41.3904C45.7061 41.9869 44.0578 42.1612 43.3753 42.8839C43.7171 44.0195 43.8226 45.5783 43.9649 47.0155C45.1337 47.089 46.5721 46.6955 47.5448 47.1131C46.8658 47.331 45.9848 47.3333 45.3987 47.6522C45.8781 47.8839 47 47.8368 47.7318 47.6602ZM38.3833 41.5694C37.6779 39.9153 37.0367 38.2016 35.9825 36.8688C34.9617 37.5512 33.8364 38.1924 33.5485 39.4313C35.011 40.256 36.7155 41.0692 38.3833 41.5694ZM40.1245 36.4466C40.058 38.1018 39.8676 40.272 39.4248 41.5682C40.4813 40.2285 41.3324 38.6696 42.2236 37.1509C41.844 36.5441 41.0502 36.0153 40.1245 36.4466ZM38.1516 35.7492C37.7513 35.7056 37.4118 36.2069 36.8922 35.9901C36.7729 36.1209 36.6639 36.2631 36.5423 36.3916C37.6917 37.7703 38.2136 39.7272 39.1002 41.348C39.5774 39.7914 39.5223 38.0858 39.6279 36.387C38.9729 36.4283 38.6093 35.7974 38.1516 35.7492ZM36.883 34.0803C36.8405 34.5529 36.9507 34.7077 37.0459 35.2491C38.6047 35.7343 38.3317 33.1179 36.883 34.0803ZM35.1544 33.5159C34.4834 33.1489 33.474 32.752 32.6068 32.5868C31.5309 32.3815 31.6318 34.0482 31.6777 35.0415C31.7132 35.8284 32.125 36.6611 32.3028 37.1842C32.3866 37.4274 32.4061 37.6866 32.6148 37.7348C32.9853 37.8208 34.2069 37.3345 34.5545 37.1452C35.2909 36.746 35.8621 36.1106 36.4873 35.685L36.5102 35.0622C36.0862 34.8515 35.6219 34.7345 35.1486 34.7192C35.5237 34.5322 36.0743 34.5345 36.415 34.3108L36.4253 34.0631C35.8025 34.0149 35.565 33.7385 35.1544 33.5159ZM28.7401 32.3551C28.1826 32.9183 30.3035 33.6868 30.978 33.7281C30.9745 33.3725 31.1822 33.0353 31.1409 32.7795C30.3379 32.6396 29.2849 32.7313 28.7401 32.3551ZM35.6063 32.6189C35.6029 32.674 35.5306 32.6545 35.5191 32.6992C36.236 33.2578 36.7694 33.3725 37.7444 33.3255C38.1849 33.0066 38.576 32.635 39.0337 32.3368C37.9784 32.4308 36.6513 33.0823 35.6063 32.6189ZM41.9082 34.523C41.8784 33.8967 41.7132 32.6086 41.3232 32.3838C40.5088 31.9089 39.0589 33.3416 38.4441 33.5595C38.5118 33.7511 38.6219 33.9036 38.6299 34.148C38.9936 34.0585 39.4363 34.1193 39.7506 34.2741C39.387 34.3143 38.9821 34.312 38.7412 34.484C38.654 34.7387 38.7641 35.0851 38.7045 35.4384C39.5694 35.6804 40.5558 35.81 41.6478 35.8421C41.8612 35.5669 41.9334 35.0427 41.9082 34.523ZM27.8018 32.9C27.6263 32.7761 26.4425 31.2413 26.2797 31.3056C24.1381 32.1464 22.1342 33.602 20.3437 34.9784C22.0505 38.626 22.741 43.0972 22.8615 47.4055C24.8172 48.3163 26.5343 49.6308 29.1874 49.7673C28.8812 47.6028 28.6001 45.6724 28.4258 43.6352C27.7605 43.3553 26.8027 43.6467 26.1787 43.548C26.1741 42.799 27.1319 43.22 27.2111 42.7164C27.2719 42.3356 26.6846 42.3069 26.8761 41.707C27.3636 41.8837 27.6194 42.2736 28.1402 42.4205C28.6151 41.3835 28.1333 39.5517 28.2021 38.6857C28.2147 38.5228 28.2824 37.7852 28.6495 37.9149C28.9718 38.0296 28.63 39.8763 28.6655 40.6965C28.6976 41.4512 28.5738 42.1819 28.8812 42.6556C31.5153 42.2962 34.1669 42.0798 36.8245 42.0075C36.2143 41.7472 35.4893 41.5005 34.6944 41.0532C34.2631 40.8123 32.905 40.3076 32.7811 39.9004C32.5827 39.2512 33.3008 38.9048 33.4235 38.3473C32.1296 39.0504 31.8773 37.674 31.571 36.6978C31.2934 35.8146 31.1351 35.1539 31.0674 34.6446C29.9525 34.1147 28.7619 33.5779 27.8018 32.9ZM40.7749 31.4902C42.5609 30.6277 42.8832 34.7134 42.1824 36.0291C42.2913 36.4214 42.6641 36.5717 42.8144 36.9238C41.8187 38.7017 40.7118 40.3615 39.6955 42.1188C40.4526 41.6497 41.5308 42.0351 42.4221 41.6829C42.7467 41.5567 42.9818 40.8135 43.2285 40.2204C43.9052 38.5882 44.6164 36.5304 44.933 34.9727C45.0052 34.6171 45.1991 33.844 45.1555 33.5274C45.0775 32.9619 44.3067 32.5432 43.9167 32.1934C43.194 31.5476 42.7387 30.9775 41.9862 30.3742C41.6811 30.8238 41.0238 31.1255 40.7749 31.4902ZM23.7183 15.7195C22.8695 16.652 23.0461 18.399 23.1494 19.6424C24.6864 18.6789 26.7282 19.7181 26.7087 21.3572C27.4428 21.3377 26.9828 20.4442 26.8497 19.8683C26.4162 17.9872 27.5804 15.9431 26.9025 14.2237C25.5857 14.3235 24.5029 14.8592 23.7183 15.7195ZM29.8057 10.3088C27.8787 10.8525 25.4125 12.2462 24.621 13.9691C25.2336 13.8807 25.658 13.5733 26.2625 13.5343C26.4919 13.5206 26.7901 13.6307 27.0539 13.5653C27.5758 13.4357 28.0174 12.2668 28.412 11.8333C28.7974 11.4089 29.2608 11.2265 29.5763 10.8399C29.7793 10.7413 30.081 10.7482 30.0925 10.4442C30.0041 10.3501 29.9112 10.279 29.8057 10.3088ZM39.8298 10.8204C37.8304 9.69631 34.4478 8.85208 32.3212 9.90737C30.6063 10.7596 28.287 12.1693 27.4967 13.9564C28.2354 15.6805 27.2776 17.2599 27.2168 19.0103C27.1835 19.9418 27.6561 20.7539 27.6928 21.769C27.4405 22.1842 26.6685 22.2347 26.1328 22.2072C25.9539 21.3102 25.6396 20.3019 24.7105 20.1998C23.3994 20.0576 22.4393 21.1393 22.3808 22.2691C22.3097 23.5997 23.4052 25.802 24.9583 25.6495C25.5582 25.5898 25.705 24.9911 26.3577 24.9968C26.7132 25.7011 25.8128 25.9225 25.7199 26.426C25.6958 26.5556 25.7945 27.0638 25.8518 27.3024C26.134 28.4632 26.7626 29.9658 27.3808 30.849C28.1666 31.9697 29.7093 32.1383 31.3691 32.2484C31.6662 31.613 32.757 31.6646 33.4694 31.8309C32.6171 31.4948 31.8245 30.6793 31.1672 29.9566C30.4125 29.1285 29.6474 28.2395 29.6084 27.1578C31.0353 29.1285 32.2134 30.8502 34.8068 31.7174C36.7694 32.3723 39.0624 31.4168 40.5696 30.3615C41.1959 29.9234 41.5687 29.2271 42.0149 28.5905C43.6781 26.2046 44.4547 22.8013 44.2837 19.5024C44.2138 18.142 44.2172 16.7862 43.7584 15.8709C43.2801 14.9131 41.6593 14.0574 40.7118 14.9223C40.5352 13.992 41.4999 13.4162 42.632 13.7523C41.8245 12.713 40.9768 11.4651 39.8298 10.8204ZM43.5531 41.52C45.1154 40.7469 48.0334 39.4381 49.013 41.5235C49.3732 42.292 49.7976 43.5905 49.9846 44.3842C50.2484 45.5026 49.6978 47.8552 48.5427 48.2303C47.523 48.5629 46.3335 48.5423 45.105 48.2968C44.9327 48.142 44.7908 47.9564 44.6864 47.7497C43.8089 47.7152 42.9887 47.7955 42.2948 48.1557C42.3601 48.8027 41.922 48.9059 41.5102 49.0389C41.2051 50.2433 42.1204 51.8171 41.9013 52.916C41.7453 53.6971 40.7784 53.8187 40.0683 53.9644C40.0454 54.4003 40.0993 54.7627 40.1486 55.1309C39.9858 55.7274 39.2574 56.0658 38.5669 56.1495C36.2957 56.4214 32.8477 56.5441 30.6637 55.7607C30.0535 54.2718 29.574 52.4594 29.0658 50.7595C26.9358 50.9855 25.2118 49.843 23.5875 49.0951C23.0255 48.8348 22.2478 48.6925 22.0379 48.2463C21.8337 47.8139 21.9174 46.9869 21.8658 46.2046C21.7373 44.2087 21.6272 42.2828 21.0984 40.2388C20.861 39.3211 20.4469 38.5125 20.1579 37.6281C19.8906 36.8091 19.4238 35.7963 19.3022 34.9796C19.1221 33.7683 20.2657 33.7017 20.9987 33.1764C22.1296 32.3654 23.0175 31.9169 24.2425 31.184C24.605 30.9672 25.6993 30.4189 25.8243 30.1665C26.072 29.6653 25.3999 28.9587 25.2198 28.5653C24.9353 27.9436 24.7874 27.4159 24.7461 26.8034C24.2873 26.7282 23.8487 26.5602 23.4571 26.3095C23.0656 26.0588 22.7294 25.7307 22.4692 25.3455C21.6903 24.2076 21.1501 22.1039 21.8245 20.505C21.8773 20.3788 22.1411 20.1299 22.1801 19.9372C22.2558 19.5552 22.0356 19.0493 22.0218 18.6433C21.9507 16.5637 22.3751 14.772 23.7802 14.1446C24.3503 11.8803 26.3932 11.1278 28.3168 10.0026C29.036 9.5816 29.8286 9.31319 30.6476 9.01267C33.5841 7.93559 38.092 8.13861 40.5283 9.97619C41.5629 10.7539 43.2147 12.3988 43.8054 13.5894C45.3654 16.7323 45.2553 21.9858 44.1633 25.8089C44.0176 26.3216 43.8043 27.0764 43.5072 27.6935C43.3007 28.1236 42.6561 28.9851 42.7341 29.3659C42.8144 29.7582 44.2023 30.8089 44.5005 31.0945C45.0362 31.6095 46.0536 32.2932 46.1362 32.9424C46.2257 33.6341 45.8311 34.5804 45.6315 35.248C44.9628 37.4755 44.3101 39.5345 43.5531 41.52Z" fill="#231F20"/>
<path fill-rule="evenodd" clip-rule="evenodd" d="M33.1335 26.1012C33.2184 25.9888 33.6841 25.819 34.3356 26.131C34.3356 26.131 33.5637 26.2595 33.6279 27.5419L33.3056 27.4788C33.3056 27.4788 32.9729 26.3145 33.1335 26.1023" fill="#F7E4CD"/>
<path fill-rule="evenodd" clip-rule="evenodd" d="M38.7776 37.1304C38.7775 37.1769 38.7683 37.2229 38.7504 37.2658C38.7325 37.3087 38.7064 37.3476 38.6735 37.3805C38.607 37.4467 38.517 37.4838 38.4231 37.4837C38.3293 37.4835 38.2393 37.4461 38.1731 37.3796C38.1068 37.3132 38.0697 37.2231 38.0698 37.1293C38.0698 37.0354 38.1071 36.9454 38.1735 36.879C38.2398 36.8127 38.3298 36.7754 38.4237 36.7754C38.5175 36.7754 38.6075 36.8127 38.6739 36.879C38.7403 36.9454 38.7776 37.0365 38.7776 37.1304ZM39.1309 38.7661C39.1307 38.8125 39.1214 38.8584 39.1035 38.9012C39.0856 38.944 39.0595 38.9829 39.0266 39.0156C38.9936 39.0483 38.9546 39.0742 38.9117 39.0918C38.8688 39.1094 38.8228 39.1184 38.7764 39.1182C38.73 39.1181 38.6841 39.1088 38.6413 39.0909C38.5985 39.073 38.5596 39.0469 38.5269 39.0139C38.4942 38.981 38.4683 38.942 38.4507 38.8991C38.4331 38.8562 38.4241 38.8102 38.4243 38.7638C38.4246 38.6701 38.4621 38.5804 38.5286 38.5143C38.595 38.4483 38.685 38.4113 38.7787 38.4117C38.8724 38.412 38.9621 38.4495 39.0282 38.5159C39.0942 38.5824 39.1312 38.6724 39.1309 38.7661Z" fill="#1D1919"/>
</svg>
