<?xml version="1.0" encoding="utf-8"?><svg width="65" height="65" viewBox="0 0 65 65" fill="none" xmlns="http://www.w3.org/2000/svg">
<g clip-path="url(#clip0_4140_8331)">
<path d="M54.8572 31.014L34.2038 10.3592L32.2006 8.35742L16.6514 23.9052L9.54272 31.014C9.18675 31.3705 8.98682 31.8536 8.98682 32.3574C8.98682 32.8612 9.18675 33.3444 9.54272 33.7009L23.7478 47.9059L32.2006 56.3574L47.7485 40.811L47.9892 40.5688L54.8572 33.7009C55.2131 33.3444 55.4131 32.8612 55.4131 32.3574C55.4131 31.8536 55.2131 31.3705 54.8572 31.014ZM32.2006 39.4544L25.1043 32.3581L32.2006 25.2618L39.297 32.3581L32.2006 39.4544Z" fill="#2684FF"/>
<path d="M32.2004 25.2611C29.968 23.0288 28.7096 20.0039 28.7 16.8469C28.6905 13.6899 29.9306 10.6575 32.1494 8.41174L16.6195 23.9362L25.0724 32.389L32.199 25.2611H32.2004Z" fill="url(#paint0_linear_4140_8331)"/>
<path d="M39.3143 32.3369L32.2001 39.4539C33.3102 40.5636 34.1908 41.8812 34.7916 43.3313C35.3924 44.7814 35.7017 46.3357 35.7017 47.9054C35.7017 49.475 35.3924 51.0293 34.7916 52.4795C34.1908 53.9296 33.3102 55.2471 32.2001 56.3569L47.7672 40.7898L39.3143 32.3369Z" fill="url(#paint1_linear_4140_8331)"/>
</g>
<defs>
<linearGradient id="paint0_linear_4140_8331" x1="1071.13" y1="975.368" x2="366.367" y2="1680.11" gradientUnits="userSpaceOnUse">
<stop offset="0.18" stop-color="#0052CC"/>
<stop offset="1" stop-color="#2684FF"/>
</linearGradient>
<linearGradient id="paint1_linear_4140_8331" x1="540.559" y1="1453.5" x2="1242.81" y2="751.283" gradientUnits="userSpaceOnUse">
<stop offset="0.18" stop-color="#0052CC"/>
<stop offset="1" stop-color="#2684FF"/>
</linearGradient>
<clipPath id="clip0_4140_8331">
<path d="M0.199951 10.3574C0.199951 4.83457 4.6771 0.357422 10.2 0.357422H54.2C59.7228 0.357422 64.2 4.83457 64.2 10.3574V54.3574C64.2 59.8803 59.7228 64.3574 54.2 64.3574H10.2C4.6771 64.3574 0.199951 59.8803 0.199951 54.3574V10.3574Z" fill="white"/>
</clipPath>
</defs>
</svg>
