<?xml version="1.0" encoding="utf-8"?><svg width="65" height="65" viewBox="0 0 65 65" fill="none" xmlns="http://www.w3.org/2000/svg">
<g clip-path="url(#clip0_4140_8359)">
<path d="M43.7875 48.5762L55.2875 50.258L43.8162 55.0449H43.7875L9.28748 43.5449L43.7875 48.5762V9.04492L55.2875 13.8318V50.258" fill="#CB2E62"/>
<path d="M20.5736 16.7114L24.8711 17.6707V24.5427L32.0337 19.5748V25.3015L24.8711 29.1241L32.0337 32.9467V38.6735L24.8711 33.7055V40.5776L20.5736 41.5368L12.9383 34.8509V31.9875L17.3361 29.1241L12.9383 26.2608V23.3974L20.5736 16.7114ZM15.2303 24.5427L20.5736 27.22V20.534L15.2303 24.5427ZM20.5736 37.7142V31.0283L15.2303 33.7055L20.5736 37.7142ZM32.0337 19.5748L37.7637 21.4932V36.755L32.0337 38.6735V19.5748Z" fill="#CB2E62"/>
</g>
<defs>
<clipPath id="clip0_4140_8359">
<path d="M0.287476 10.0449C0.287476 4.52207 4.76463 0.0449219 10.2875 0.0449219H54.2875C59.8103 0.0449219 64.2875 4.52207 64.2875 10.0449V54.0449C64.2875 59.5678 59.8103 64.0449 54.2875 64.0449H10.2875C4.76463 64.0449 0.287476 59.5678 0.287476 54.0449V10.0449Z" fill="white"/>
</clipPath>
</defs>
</svg>
