<?xml version="1.0" encoding="utf-8"?><svg width="65" height="65" viewBox="0 0 65 65" fill="none" xmlns="http://www.w3.org/2000/svg">
<path d="M14.4849 55.8575L13.5727 54.9427L18.5664 49.933L10.3388 41.685L11.2555 40.7703L20.3952 49.933L14.4849 55.8575Z" fill="black"/>
<path d="M54.4613 49.2843H19.4768V50.5815H54.4613V49.2843Z" fill="black"/>
<path d="M22.4318 9.73901C22.4173 9.60858 22.4362 9.47659 22.4868 9.35558C22.5375 9.23457 22.6182 9.12857 22.7212 9.04766C22.8242 8.96674 22.9462 8.9136 23.0755 8.8933C23.2048 8.87299 23.3372 8.88619 23.46 8.93165L30.7196 11.6154L23.4332 18.6647L22.4318 9.73901Z" fill="#502D17"/>
<path d="M48.1049 9.73927C48.12 9.60894 48.1015 9.47693 48.0511 9.35586C48.0008 9.23477 47.9203 9.12867 47.8174 9.04768C47.7144 8.96668 47.5925 8.91352 47.4632 8.89325C47.3339 8.87297 47.2017 8.88629 47.079 8.9319L39.8172 11.6157L47.1057 18.665L48.1049 9.73927Z" fill="#502D17"/>
<path d="M35.3537 48.4445C45.0329 48.4445 52.8794 41.6908 52.8794 33.3597C52.8794 25.0285 45.0329 18.2748 35.3537 18.2748C25.6745 18.2748 17.828 25.0285 17.828 33.3597C17.828 41.6908 25.6745 48.4445 35.3537 48.4445Z" fill="#794422"/>
<path d="M49.8551 29.2316C49.8551 40.4809 43.3627 49.6012 35.3582 49.6012C27.3536 49.6012 20.8611 40.4809 20.8611 29.2316C20.8611 17.9822 27.3536 8.85742 35.3582 8.85742C43.3627 8.85742 49.8551 17.9866 49.8551 29.2316Z" fill="#502D17"/>
<path d="M29.4995 30.0364C33.2341 30.0364 36.2617 26.5779 36.2617 22.3116C36.2617 18.0454 33.2341 14.5869 29.4995 14.5869C25.7647 14.5869 22.7371 18.0454 22.7371 22.3116C22.7371 26.5779 25.7647 30.0364 29.4995 30.0364Z" fill="white"/>
<path d="M45.4546 37.658C45.4546 42.8622 40.9315 47.0824 35.3536 47.0824C29.7755 47.0824 25.2637 42.8735 25.2637 37.658C25.2637 32.4426 29.7844 28.2291 35.3625 28.2291C40.9405 28.2291 45.4546 32.4493 45.4546 37.658Z" fill="white"/>
<path d="M47.8434 22.2978C47.8434 26.5649 44.8147 30.0225 41.079 30.0225C37.3432 30.0225 34.3189 26.5739 34.3189 22.2978C34.3189 18.0217 37.3454 14.5708 41.079 14.5708C44.8125 14.5708 47.8434 18.0486 47.8434 22.2978Z" fill="white"/>
<path d="M34.7988 24.9397C35.173 24.7933 35.5892 24.7974 35.9607 24.9508C37.0329 25.3666 37.9838 26.0456 38.7263 26.9257C38.8421 27.0708 38.9098 27.2485 38.9202 27.4341C38.9306 27.6196 38.8831 27.8039 38.7843 27.9611C38.0147 29.1588 37.0318 30.2042 35.8849 31.0452C35.7421 31.1539 35.5678 31.2127 35.3887 31.2127C35.2095 31.2127 35.0352 31.1539 34.8924 31.0452C33.7444 30.2055 32.7614 29.1598 31.993 27.9611C31.8935 27.806 31.8457 27.6233 31.8565 27.4391C31.8674 27.2551 31.9362 27.0791 32.0532 26.9368C32.7716 26.0345 33.7204 25.3443 34.7988 24.9397Z" fill="#FF7F2B"/>
<path d="M34.6811 32.8788C34.6811 33.2383 34.5387 33.583 34.2853 33.8372C34.0318 34.0914 33.688 34.2341 33.3296 34.2341C32.9711 34.2341 32.6274 34.0914 32.3738 33.8372C32.1204 33.583 31.978 33.2383 31.978 32.8788H34.6811Z" fill="#D6D6D6"/>
<path d="M38.7872 32.8788C38.7872 33.2383 38.6447 33.583 38.3912 33.8372C38.1378 34.0914 37.794 34.2341 37.4356 34.2341C37.077 34.2341 36.7333 34.0914 36.4799 33.8372C36.2264 33.583 36.084 33.2383 36.084 32.8788H38.7872Z" fill="#D6D6D6"/>
<path d="M32.6248 35.5807C32.6248 35.9402 32.4824 36.2849 32.2289 36.5391C31.9754 36.7933 31.6317 36.936 31.2732 36.936C30.9148 36.936 30.571 36.7933 30.3175 36.5391C30.064 36.2849 29.9217 35.9402 29.9217 35.5807H32.6248Z" fill="#D6D6D6"/>
<path d="M36.7361 35.5807C36.7361 35.9402 36.5937 36.2849 36.3402 36.5391C36.0868 36.7933 35.7431 36.936 35.3846 36.936C35.0261 36.936 34.6823 36.7933 34.4289 36.5391C34.1754 36.2849 34.0331 35.9402 34.0331 35.5807H36.7361Z" fill="#D6D6D6"/>
<path d="M40.8409 35.5807C40.8409 35.9402 40.6984 36.2849 40.445 36.5391C40.1915 36.7933 39.8477 36.936 39.4893 36.936C39.1309 36.936 38.787 36.7933 38.5336 36.5391C38.2801 36.2849 38.1377 35.9402 38.1377 35.5807H40.8409Z" fill="#D6D6D6"/>
<path d="M30.5765 38.2262C30.5765 38.5856 30.434 38.9303 30.1806 39.1845C29.9271 39.4387 29.5833 39.5815 29.2249 39.5815C28.8664 39.5815 28.5227 39.4387 28.2692 39.1845C28.0157 38.9303 27.8733 38.5856 27.8733 38.2262H30.5765Z" fill="#D6D6D6"/>
<path d="M34.6811 38.2262C34.6811 38.5856 34.5387 38.9303 34.2853 39.1845C34.0318 39.4387 33.688 39.5815 33.3296 39.5815C32.9711 39.5815 32.6274 39.4387 32.3738 39.1845C32.1204 38.9303 31.978 38.5856 31.978 38.2262H34.6811Z" fill="#D6D6D6"/>
<path d="M38.7872 38.2262C38.7872 38.5856 38.6447 38.9303 38.3912 39.1845C38.1378 39.4387 37.794 39.5815 37.4356 39.5815C37.077 39.5815 36.7333 39.4387 36.4799 39.1845C36.2264 38.9303 36.084 38.5856 36.084 38.2262H38.7872Z" fill="#D6D6D6"/>
<path d="M42.8967 38.2262C42.8825 38.5764 42.7338 38.9075 42.4816 39.1503C42.2296 39.393 41.8936 39.5287 41.544 39.5287C41.1944 39.5287 40.8584 39.393 40.6063 39.1503C40.3542 38.9075 40.2055 38.5764 40.1913 38.2262H42.8967Z" fill="#D6D6D6"/>
<path d="M32.6248 40.9281C32.6248 41.2875 32.4824 41.6322 32.2289 41.8864C31.9754 42.1406 31.6317 42.2834 31.2732 42.2834C30.9148 42.2834 30.571 42.1406 30.3175 41.8864C30.064 41.6322 29.9217 41.2875 29.9217 40.9281H32.6248Z" fill="#D6D6D6"/>
<path d="M36.7361 40.9281C36.7361 41.2875 36.5937 41.6322 36.3402 41.8864C36.0868 42.1406 35.7431 42.2834 35.3846 42.2834C35.0261 42.2834 34.6823 42.1406 34.4289 41.8864C34.1754 41.6322 34.0331 41.2875 34.0331 40.9281H36.7361Z" fill="#D6D6D6"/>
<path d="M40.8409 40.9281C40.8409 41.2875 40.6984 41.6322 40.445 41.8864C40.1915 42.1406 39.8477 42.2834 39.4893 42.2834C39.1309 42.2834 38.787 42.1406 38.5336 41.8864C38.2801 41.6322 38.1377 41.2875 38.1377 40.9281H40.8409Z" fill="#D6D6D6"/>
<path d="M34.6811 43.571C34.6811 43.9304 34.5387 44.2752 34.2853 44.5294C34.0318 44.7835 33.688 44.9263 33.3296 44.9263C32.9711 44.9263 32.6274 44.7835 32.3738 44.5294C32.1204 44.2752 31.978 43.9304 31.978 43.571H34.6811Z" fill="#D6D6D6"/>
<path d="M38.7872 43.571C38.7872 43.9304 38.6447 44.2752 38.3912 44.5294C38.1378 44.7835 37.794 44.9263 37.4356 44.9263C37.077 44.9263 36.7333 44.7835 36.4799 44.5294C36.2264 44.2752 36.084 43.9304 36.084 43.571H38.7872Z" fill="#D6D6D6"/>
<path d="M30.3831 25.3847C32.556 25.3847 34.3174 23.6184 34.3174 21.4397C34.3174 19.2608 32.556 17.4945 30.3831 17.4945C28.2103 17.4945 26.4489 19.2608 26.4489 21.4397C26.4489 23.6184 28.2103 25.3847 30.3831 25.3847Z" fill="#C2DDEB"/>
<path d="M30.3823 23.913C31.7421 23.913 32.8445 22.8075 32.8445 21.4439C32.8445 20.0803 31.7421 18.9749 30.3823 18.9749C29.0224 18.9749 27.92 20.0803 27.92 21.4439C27.92 22.8075 29.0224 23.913 30.3823 23.913Z" fill="black"/>
<path d="M31.005 21.4458C31.5087 21.4458 31.9172 21.0362 31.9172 20.531C31.9172 20.0259 31.5087 19.6163 31.005 19.6163C30.5011 19.6163 30.0927 20.0259 30.0927 20.531C30.0927 21.0362 30.5011 21.4458 31.005 21.4458Z" fill="white"/>
<path d="M40.011 25.3893C42.1851 25.3893 43.9475 23.622 43.9475 21.4419C43.9475 19.2619 42.1851 17.4945 40.011 17.4945C37.8369 17.4945 36.0746 19.2619 36.0746 21.4419C36.0746 23.622 37.8369 25.3893 40.011 25.3893Z" fill="#C2DDEB"/>
<path d="M40.0106 23.913C41.3704 23.913 42.4728 22.8075 42.4728 21.4439C42.4728 20.0803 41.3704 18.9749 40.0106 18.9749C38.6507 18.9749 37.5483 20.0803 37.5483 21.4439C37.5483 22.8075 38.6507 23.913 40.0106 23.913Z" fill="black"/>
<path d="M40.6292 21.4458C41.133 21.4458 41.5414 21.0362 41.5414 20.531C41.5414 20.0259 41.133 19.6163 40.6292 19.6163C40.1255 19.6163 39.717 20.0259 39.717 20.531C39.717 21.0362 40.1255 21.4458 40.6292 21.4458Z" fill="white"/>
<path d="M43.5188 49.6154C43.5188 50.6577 42.9456 51.4986 42.2409 51.4986C41.5361 51.4986 40.9629 50.6577 40.9629 49.6154C40.9629 50.6577 40.3897 51.4986 39.6827 51.4986C38.9757 51.4986 38.4047 50.6577 38.4047 49.6154C38.4047 50.6577 37.8338 51.4986 37.1268 51.4986C36.4198 51.4986 35.8488 50.6577 35.8488 49.6154C35.8488 48.1461 37.5595 46.9541 39.6716 46.9541C41.7837 46.9541 43.4965 48.1461 43.4965 49.6154H43.5188Z" fill="#FF7F2B"/>
<path d="M34.8004 49.6154C34.8004 50.6577 34.2272 51.4986 33.5224 51.4986C32.8176 51.4986 32.2422 50.6577 32.2422 49.6154C32.2422 50.6577 31.6712 51.4986 30.9642 51.4986C30.2572 51.4986 29.6863 50.6577 29.6863 49.6154C29.6863 50.6577 29.1131 51.4986 28.4083 51.4986C27.7035 51.4986 27.1303 50.6577 27.1303 49.6154C27.1303 48.1461 28.841 46.9541 30.9531 46.9541C33.0652 46.9541 34.7781 48.1461 34.7781 49.6154H34.8004Z" fill="#FF7F2B"/>
</svg>
