<?xml version="1.0" encoding="utf-8"?><svg width="65" height="65" viewBox="0 0 65 65" fill="none" xmlns="http://www.w3.org/2000/svg">
<g clip-path="url(#clip0_4140_8399)">
<path d="M54.9194 21.8578C52.9818 22.2006 48.3087 22.6347 42.5413 21.0809C36.774 19.5271 32.9444 16.8308 31.4398 15.5512C30.0265 14.363 29.1375 13.4262 28.4308 13.449C28.0661 13.4719 27.7469 13.7461 27.4278 14.3859C26.7667 15.734 25.9461 17.7905 25.1026 20.5554C24.9203 21.1952 24.7151 21.8807 24.5327 22.589C24.2136 23.7544 23.9173 25.0797 23.6665 26.5421C23.6209 26.862 23.5525 27.2047 23.5069 27.5246C23.3702 28.53 23.2334 29.5811 23.165 30.6551C23.1194 31.2035 23.0966 31.729 23.0738 32.3003C23.051 32.8487 23.051 33.3971 23.051 33.9683C23.1194 41.5774 25.5813 49.552 34.3121 51.9056C47.9439 55.5616 55.193 39.658 57.4041 31.4091C58.43 27.5932 58.8631 24.7141 58.9998 22.8632C59.1366 20.761 57.6777 21.378 54.9194 21.8578ZM27.5418 28.69C27.5418 28.69 29.6846 25.331 33.3319 26.3821C36.9792 27.4104 37.2527 31.4548 37.2527 31.4548L27.5418 28.69ZM36.7284 43.7938L36.4321 43.7253C30.0265 41.8516 29.0463 36.7332 29.0463 36.7332L32.6708 37.7614L46.257 41.5774C46.257 41.5317 42.8833 45.439 36.7284 43.7938ZM42.5186 33.1914C42.5186 33.1914 44.6613 29.8553 48.3087 30.8836C51.956 31.9118 52.2295 35.9563 52.2295 35.9563L42.5186 33.1914Z" fill="#31AD33"/>
<path d="M23.7119 40.0693C23.8259 40.5492 23.9399 41.029 24.0766 41.5089C23.9399 41.029 23.8031 40.5492 23.7119 40.0693Z" fill="#2B2B2B"/>
<path d="M24.0539 24.5997C24.0311 24.6683 24.0311 24.7368 24.0083 24.8054C24.0311 24.7368 24.0539 24.6683 24.0539 24.5997Z" fill="#2B2B2B"/>
<path d="M23.9629 25.0796C23.9629 25.1253 23.9401 25.1481 23.9401 25.1938C23.9401 25.1481 23.9629 25.1024 23.9629 25.0796Z" fill="#2B2B2B"/>
<path d="M24.1906 24.0513C24.1678 24.1655 24.145 24.2798 24.1222 24.394C24.1222 24.2798 24.145 24.1655 24.1906 24.0513Z" fill="#2B2B2B"/>
<path d="M24.5326 22.5889C24.487 22.726 24.4642 22.8631 24.4186 22.9773C24.4642 22.8631 24.5098 22.726 24.5326 22.5889Z" fill="#2B2B2B"/>
<path d="M24.2364 46.9243C23.1194 45.0049 22.4127 42.8341 22.0252 40.5491L22.1164 40.5263L17.0785 41.9658C17.0785 41.9658 17.6712 38.4926 21.6376 36.7789C21.4325 32.0718 22.2075 27.3646 23.0738 24.0971C23.3929 22.9089 23.712 21.8578 24.0312 20.8752C22.5951 21.675 20.7486 22.4747 18.5374 23.0688C14.0695 24.2799 10.4678 23.96 8.96323 23.6858C6.84323 23.3202 5.72625 22.8403 5.81743 24.4627C5.90861 25.9022 6.25055 28.1187 7.0256 31.0435C8.71248 37.3958 13.7047 49.7577 24.2364 46.9243C24.7379 46.7872 24.4187 46.8786 24.2364 46.9243ZM11.0832 31.1349L18.5602 29.1698C18.5602 29.1698 18.3323 32.0489 15.5284 32.803C12.7245 33.5342 11.0832 31.1349 11.0832 31.1349Z" fill="#D65347"/>
<path d="M24.3046 23.5486C24.2818 23.6628 24.259 23.7771 24.2134 23.8913C24.2362 23.7771 24.259 23.6628 24.3046 23.5486Z" fill="#2B2B2B"/>
</g>
<defs>
<clipPath id="clip0_4140_8399">
<rect width="53" height="55" fill="white" transform="translate(5.99988 4.85742)"/>
</clipPath>
</defs>
</svg>
