<?xml version="1.0" encoding="utf-8"?><svg width="65" height="65" viewBox="0 0 65 65" fill="none" xmlns="http://www.w3.org/2000/svg">
<path d="M51.6744 9.35801C51.7921 9.35091 51.9038 9.40835 51.9623 9.50609C52.0208 9.60382 52.016 9.72482 51.9498 9.818L40.0369 25.2605C39.9496 25.3545 39.8243 25.4084 39.6926 25.4084C39.561 25.4084 39.4357 25.3545 39.3483 25.2605L35.1478 20.792C35.0452 20.6904 34.8999 20.6387 34.7526 20.6514C34.6053 20.6642 34.4721 20.7401 34.3904 20.8577L31.8426 23.9463C31.7619 24.1201 31.7884 24.3223 31.9114 24.472L39.486 31.9631C39.5734 32.0572 39.6987 32.111 39.8304 32.111C39.962 32.111 40.0874 32.0572 40.1746 31.9631L55.0485 15.995C55.1364 15.9049 55.2725 15.8743 55.3931 15.9175C55.5138 15.9607 55.5953 16.0692 55.5994 16.1921V55.0283C55.6051 55.117 55.5707 55.2038 55.5048 55.2666C55.439 55.3295 55.3481 55.3623 55.2551 55.3568H9.94489C9.85194 55.3623 9.76102 55.3295 9.69517 55.2666C9.62933 55.2038 9.59489 55.117 9.60059 55.0283V9.68658C9.59489 9.59788 9.62933 9.51111 9.69517 9.44827C9.76102 9.38544 9.85194 9.35257 9.94489 9.35801H51.6744ZM39.9681 35.5774C37.9181 35.5429 35.9423 36.3095 34.499 37.6993C33.0556 39.089 32.2701 40.9812 32.3246 42.9372C32.3246 47.4714 35.7676 50.3627 40.2435 50.3627C42.3155 50.4119 44.3473 49.8118 46.0278 48.6542C46.1836 48.5192 46.2128 48.2959 46.0967 48.1285L44.8572 46.3542C44.7178 46.2018 44.4806 46.1735 44.3063 46.2885C43.229 46.9907 41.961 47.3787 40.6567 47.4057C38.2466 47.4057 36.7316 45.9599 36.4562 44.2514C36.4612 44.1809 36.52 44.1248 36.5939 44.12H46.9918C47.2135 44.1057 47.39 43.9373 47.405 43.7257V43.3314C47.405 38.7316 44.3752 35.5774 39.9681 35.5774ZM29.7079 33.0802C27.6163 31.4489 24.9699 30.607 22.2709 30.7146C17.5884 30.7146 14.6963 33.3431 14.6963 36.4974C14.6963 43.66 26.1271 41.3601 26.1271 44.7114C26.1271 45.7628 25.0254 46.8142 22.6841 46.8142C20.4605 46.8317 18.3152 46.0316 16.6932 44.58C16.5964 44.4936 16.4652 44.4513 16.3333 44.4639C16.2014 44.4764 16.0816 44.5427 16.0046 44.6457L14.2142 47.0114C14.0981 47.1788 14.1273 47.4021 14.2831 47.5371C16.1423 49.1799 18.7591 50.297 22.4086 50.297C27.7798 50.297 30.3964 47.6685 30.5341 44.2514C30.5341 37.1545 19.1033 39.1916 19.1033 36.1688C19.1033 35.0517 20.1362 34.2631 21.9266 34.2631C23.9002 34.2373 25.8224 34.8642 27.3666 36.0374C27.4574 36.1084 27.5743 36.1414 27.6909 36.129C27.8076 36.1166 27.9141 36.0599 27.9863 35.9717L29.7767 33.6717C29.8511 33.585 29.8857 33.4735 29.8727 33.3622C29.8598 33.2508 29.8003 33.1493 29.7079 33.0802ZM40.0369 38.4687C41.9099 38.3687 43.5267 39.7079 43.6866 41.4915C43.6815 41.562 43.6227 41.6182 43.5488 41.6229H36.525C36.4511 41.6182 36.3923 41.562 36.3873 41.4915C36.6176 39.7429 38.1904 38.4402 40.0369 38.4687Z" fill="#2CB134"/>
</svg>
