<?xml version="1.0" encoding="utf-8"?><svg width="65" height="65" viewBox="0 0 65 65" fill="none" xmlns="http://www.w3.org/2000/svg">
<g clip-path="url(#clip0_4140_8549)">
<path d="M50.848 17.6124C50.8158 17.3569 50.5589 17.2434 50.3657 17.2149C50.1726 17.1864 46.3123 17.1579 46.3123 17.1579C46.3123 17.1579 43.063 14.3764 42.7411 14.0929C42.4192 13.8089 41.8082 13.8939 41.5507 13.9504C41.5507 13.9504 40.9397 14.1209 39.9096 14.4049C39.7135 13.8259 39.455 13.265 39.1377 12.7299C37.98 10.7714 36.3068 9.74985 34.2473 9.74985C34.1191 9.74985 33.9582 9.74985 33.8294 9.77785C33.7573 9.71793 33.6926 9.65139 33.6363 9.57935C32.7356 8.72735 31.6096 8.33035 30.2588 8.35885C27.6211 8.41535 25.015 10.0904 22.8595 13.0989C21.3472 15.1994 20.2217 17.8389 19.8998 19.8829C16.8758 20.7064 14.7526 21.2739 14.7204 21.3024C13.2081 21.7279 13.1437 21.7564 12.9506 23.0339C12.7891 23.9704 8.79999 51.2473 8.79999 51.2473L42.2904 56.3573L56.8 53.1783C56.8 53.1783 50.8802 17.8394 50.848 17.6124ZM38.237 14.8589C37.465 15.0574 36.5965 15.3129 35.6309 15.5689C35.5987 14.4049 35.4383 12.7589 34.8267 11.3389C36.854 11.6799 37.8185 13.6669 38.237 14.8589ZM33.8938 16.0509C32.1246 16.5334 30.2261 17.0444 28.2959 17.5839C28.8431 15.7674 29.8726 13.9504 31.1273 12.7589C31.6096 12.3039 32.2534 11.8219 33.0247 11.5379C33.7651 12.8719 33.8938 14.7739 33.8938 16.0509ZM30.291 9.91985C30.902 9.91985 31.4165 10.0334 31.8665 10.2889C31.1595 10.6014 30.4514 11.0839 29.8082 11.7084C28.135 13.2979 26.848 15.7384 26.3335 18.1234C24.7247 18.5489 23.1808 18.9749 21.7329 19.3719C22.6985 15.6254 26.2375 10.0334 30.291 9.91985Z" fill="#8BC365"/>
<path d="M50.289 17.1549C50.0936 17.1264 46.1869 17.0984 46.1869 17.0984C46.1869 17.0984 42.8992 14.3124 42.5734 14.0284C42.4531 13.9202 42.2892 13.8587 42.1177 13.8574V56.3574L56.8 53.1734C56.8 53.1734 50.8096 17.8089 50.7774 17.5534C50.7125 17.2974 50.4844 17.1834 50.289 17.1549Z" fill="#5E8E3E"/>
<path d="M34.2118 23.8265L32.555 29.3375C32.555 29.3375 30.7072 28.578 28.4766 28.719C25.2268 28.8875 25.1957 30.687 25.2268 31.165C25.4182 33.639 32.7464 34.173 33.1609 39.937C33.4788 44.4915 30.4204 47.584 26.0236 47.837C20.7345 48.1185 17.8353 45.391 17.8353 45.391L18.9506 41.202C18.9506 41.202 21.8814 43.142 24.2075 43.0295C25.7367 42.945 26.2782 41.8485 26.215 41.0615C25.9919 37.8565 20.0021 38.025 19.6192 32.7675C19.3007 28.325 22.6144 23.8265 29.9104 23.405C32.778 23.18 34.2118 23.8265 34.2118 23.8265Z" fill="white"/>
</g>
<defs>
<clipPath id="clip0_4140_8549">
<path d="M0.799988 10.3574C0.799988 4.83457 5.27714 0.357422 10.8 0.357422H54.8C60.3228 0.357422 64.8 4.83457 64.8 10.3574V54.3574C64.8 59.8803 60.3228 64.3574 54.8 64.3574H10.8C5.27714 64.3574 0.799988 59.8803 0.799988 54.3574V10.3574Z" fill="white"/>
</clipPath>
</defs>
</svg>
