<?xml version="1.0" encoding="utf-8"?><svg width="65" height="65" viewBox="0 0 65 65" fill="none" xmlns="http://www.w3.org/2000/svg">
<g clip-path="url(#clip0_4140_8435)">
<path d="M26.2658 9.35742C25.6612 9.35796 25.0626 9.47734 24.5042 9.70876C23.9458 9.94018 23.4386 10.2791 23.0114 10.7062C22.5843 11.1332 22.2456 11.6401 22.0147 12.1978C21.7839 12.7555 21.6653 13.3531 21.6658 13.9566C21.6651 14.5601 21.7835 15.1579 22.0143 15.7158C22.2451 16.2736 22.5838 16.7807 23.011 17.2079C23.4381 17.6351 23.9454 17.9741 24.5039 18.2056C25.0624 18.4371 25.6611 18.5566 26.2658 18.5571H30.8658V13.9566C30.8665 12.738 30.3824 11.569 29.5198 10.7066C28.6572 9.84413 27.4868 9.35886 26.2658 9.35742ZM26.2658 21.6237H14.0001C13.3954 21.6242 12.7967 21.7436 12.2382 21.9751C11.6798 22.2066 11.1724 22.5457 10.7453 22.9729C10.3181 23.4001 9.97946 23.9071 9.74866 24.465C9.51786 25.0228 9.39944 25.6206 9.40015 26.2242C9.39961 26.8276 9.51817 27.4252 9.74905 27.9829C9.97993 28.5407 10.3186 29.0475 10.7458 29.4746C11.1729 29.9017 11.6802 30.2406 12.2385 30.472C12.7969 30.7034 13.3955 30.8228 14.0001 30.8233H26.2672C27.4879 30.8215 28.658 30.3361 29.5203 29.4737C30.3825 28.6113 30.8665 27.4425 30.8658 26.2242C30.8669 25.0054 30.3829 23.836 29.5203 22.9733C28.6576 22.1106 27.487 21.6251 26.2658 21.6237Z" fill="#36C5F0"/>
<path d="M55.3999 26.2242C55.4004 25.6206 55.2818 25.0227 55.0509 24.4649C54.8199 23.907 54.4811 23.4 54.0538 22.9728C53.6266 22.5456 53.1192 22.2066 52.5606 21.9751C52.0021 21.7436 51.4033 21.6242 50.7985 21.6237C50.1938 21.6242 49.5951 21.7436 49.0366 21.9751C48.4782 22.2066 47.9709 22.5457 47.5437 22.9729C47.1165 23.4001 46.7779 23.9071 46.5471 24.465C46.3163 25.0228 46.1978 25.6206 46.1986 26.2242V30.8233H50.7985C52.0195 30.8219 53.1899 30.3366 54.0525 29.4742C54.9151 28.6118 55.4006 27.4428 55.3999 26.2242ZM43.1328 26.2242V13.9566C43.1335 12.738 42.6494 11.569 41.7868 10.7066C40.9242 9.84413 39.7538 9.35886 38.5328 9.35742C37.9282 9.35796 37.3296 9.47734 36.7713 9.70876C36.2129 9.94018 35.7056 10.2791 35.2785 10.7062C34.8513 11.1332 34.5126 11.6401 34.2818 12.1978C34.0509 12.7555 33.9323 13.3531 33.9329 13.9566V26.2228C33.932 26.8265 34.0503 27.4244 34.281 27.9824C34.5117 28.5404 34.8503 29.0476 35.2775 29.475C35.7047 29.9023 36.2121 30.2415 36.7706 30.4731C37.3292 30.7047 37.928 30.8242 38.5328 30.8247C39.754 30.8233 40.9247 30.3378 41.7873 29.4751C42.6499 28.6123 43.1339 27.443 43.1328 26.2242Z" fill="#2EB67D"/>
<path d="M38.5328 55.3574C39.754 55.356 40.9247 54.8705 41.7873 54.0078C42.6499 53.1451 43.1339 51.9757 43.1328 50.7569C43.1335 49.5383 42.6494 48.3693 41.7868 47.5069C40.9242 46.6444 39.7538 46.1592 38.5328 46.1577H33.9329V50.7582C33.9323 51.3617 34.0509 51.9593 34.2818 52.517C34.5126 53.0747 34.8513 53.5816 35.2785 54.0087C35.7056 54.4357 36.2129 54.7746 36.7713 55.0061C37.3296 55.2375 37.9282 55.3569 38.5328 55.3574ZM38.5328 43.0912H50.7999C52.0208 43.0894 53.1911 42.6037 54.0535 41.7411C54.9158 40.8784 55.3996 39.7092 55.3985 38.4907C55.3996 37.2718 54.9156 36.1025 54.053 35.2398C53.1903 34.377 52.0197 33.8916 50.7985 33.8901H38.5328C37.9281 33.8907 37.3294 34.0101 36.7709 34.2416C36.2125 34.4731 35.7052 34.8121 35.278 35.2394C34.8508 35.6666 34.5122 36.1736 34.2814 36.7315C34.0506 37.2893 33.9322 37.8871 33.9329 38.4907C33.9323 39.0941 34.0509 39.6917 34.2818 40.2494C34.5126 40.8071 34.8513 41.314 35.2785 41.7411C35.7056 42.1681 36.2129 42.5071 36.7713 42.7385C37.3296 42.9699 37.9282 43.0906 38.5328 43.0912Z" fill="#ECB22E"/>
<path d="M9.40015 38.4907C9.39961 39.0941 9.51817 39.6917 9.74905 40.2494C9.97993 40.8071 10.3186 41.314 10.7458 41.7411C11.1729 42.1681 11.6802 42.5071 12.2385 42.7385C12.7969 42.9699 13.3955 43.0893 14.0001 43.0898C15.2211 43.0884 16.3915 42.6031 17.2541 41.7407C18.1167 40.8782 18.6008 39.7092 18.6001 38.4907V33.8901H14.0001C13.3954 33.8907 12.7967 34.0101 12.2382 34.2416C11.6798 34.4731 11.1724 34.8121 10.7453 35.2394C10.3181 35.6666 9.97946 36.1736 9.74866 36.7315C9.51786 37.2893 9.39944 37.8871 9.40015 38.4907ZM21.6658 38.4907V50.7569C21.6651 51.3604 21.7835 51.9582 22.0143 52.5161C22.2451 53.0739 22.5838 53.581 23.011 54.0082C23.4381 54.4354 23.9454 54.7744 24.5039 55.0059C25.0624 55.2374 25.6611 55.3569 26.2658 55.3574C27.487 55.356 28.6576 54.8705 29.5203 54.0078C30.3829 53.1451 30.8669 51.9757 30.8658 50.7569V38.4907C30.8665 37.8871 30.7481 37.2893 30.5173 36.7315C30.2865 36.1736 29.9478 35.6666 29.5207 35.2394C29.0935 34.8121 28.5862 34.4731 28.0277 34.2416C27.4692 34.0101 26.8705 33.8907 26.2658 33.8901C25.6611 33.8907 25.0624 34.0101 24.5039 34.2416C23.9454 34.4731 23.4381 34.8121 23.011 35.2394C22.5838 35.6666 22.2451 36.1736 22.0143 36.7315C21.7835 37.2893 21.6651 37.8871 21.6658 38.4907Z" fill="#E01E5A"/>
</g>
<defs>
<clipPath id="clip0_4140_8435">
<path d="M0.400024 10.3574C0.400024 4.83457 4.87718 0.357422 10.4 0.357422H54.4C59.9229 0.357422 64.4 4.83457 64.4 10.3574V54.3574C64.4 59.8803 59.9229 64.3574 54.4 64.3574H10.4C4.87718 64.3574 0.400024 59.8803 0.400024 54.3574V10.3574Z" fill="white"/>
</clipPath>
</defs>
</svg>
