<?xml version="1.0" encoding="utf-8"?><svg width="64" height="65" viewBox="0 0 64 65" fill="none" xmlns="http://www.w3.org/2000/svg">
<g clip-path="url(#clip0_4140_8415)">
<path d="M42.1916 26.3574H55.52C56.7792 26.3574 57.8 27.3782 57.8 28.6374V40.7778C57.8 45.4058 54.0483 49.1574 49.4204 49.1574H49.3808C44.7529 49.1581 41.0007 45.4069 41 40.779C41 40.7786 41 40.7782 41 40.7778V27.549C41 26.8909 41.5335 26.3574 42.1916 26.3574Z" fill="#5059C9"/>
<path d="M51.1999 23.9573C54.1823 23.9573 56.5999 21.5397 56.5999 18.5573C56.5999 15.575 54.1823 13.1573 51.1999 13.1573C48.2176 13.1573 45.7999 15.575 45.7999 18.5573C45.7999 21.5397 48.2176 23.9573 51.1999 23.9573Z" fill="#5059C9"/>
<path d="M34.4 23.9574C38.7078 23.9574 42.2 20.4653 42.2 16.1574C42.2 11.8496 38.7078 8.35742 34.4 8.35742C30.0922 8.35742 26.6 11.8496 26.6 16.1574C26.6 20.4653 30.0922 23.9574 34.4 23.9574Z" fill="#7B83EB"/>
<path d="M44.8003 26.3574H22.7995C21.5553 26.3882 20.5711 27.4208 20.5999 28.665V42.5118C20.4262 49.9785 26.3335 56.1747 33.7999 56.3574C41.2664 56.1747 47.1737 49.9785 46.9999 42.5118V28.665C47.0288 27.4208 46.0445 26.3882 44.8003 26.3574Z" fill="#7B83EB"/>
<path opacity="0.1" d="M34.9999 26.3574V45.7614C34.9939 46.6512 34.4547 47.4506 33.6319 47.7894C33.3699 47.9002 33.0883 47.9574 32.8039 47.9574H21.6559C21.4999 47.5614 21.3559 47.1654 21.2359 46.7574C20.8158 45.3805 20.6015 43.949 20.5999 42.5094V28.6614C20.571 27.4192 21.5536 26.3882 22.7959 26.3574H34.9999Z" fill="black"/>
<path opacity="0.2" d="M33.7999 26.3574V46.9614C33.7998 47.2459 33.7427 47.5274 33.6319 47.7894C33.2931 48.6122 32.4937 49.1515 31.6039 49.1574H22.2199C22.0159 48.7614 21.8239 48.3654 21.6559 47.9574C21.4879 47.5494 21.3559 47.1654 21.2359 46.7574C20.8158 45.3805 20.6015 43.949 20.5999 42.5094V28.6614C20.571 27.4192 21.5536 26.3882 22.7959 26.3574H33.7999Z" fill="black"/>
<path opacity="0.2" d="M33.8 26.3574V44.5614C33.7908 45.7705 32.813 46.7483 31.604 46.7574H21.236C20.8159 45.3805 20.6016 43.949 20.6 42.5094V28.6614C20.5711 27.4192 21.5538 26.3882 22.796 26.3574H33.8Z" fill="black"/>
<path opacity="0.2" d="M32.6 26.3574V44.5614C32.5908 45.7705 31.613 46.7483 30.404 46.7574H21.236C20.8159 45.3805 20.6016 43.949 20.6 42.5094V28.6614C20.5711 27.4192 21.5538 26.3882 22.796 26.3574H32.6Z" fill="black"/>
<path opacity="0.1" d="M34.9999 20.1534V23.9334C34.7959 23.9454 34.6039 23.9574 34.3999 23.9574C34.1959 23.9574 34.0039 23.9454 33.7999 23.9334C33.3949 23.9065 32.9931 23.8422 32.5999 23.7414C30.1699 23.1659 28.1623 21.4617 27.1999 19.1574C27.0343 18.7704 26.9058 18.3686 26.8159 17.9574H32.8039C34.0148 17.962 34.9953 18.9425 34.9999 20.1534Z" fill="black"/>
<path opacity="0.2" d="M33.7999 21.3534V23.9335C33.3949 23.9066 32.9932 23.8423 32.6 23.7415C30.1699 23.166 28.1624 21.4618 27.2 19.1575H31.6039C32.8148 19.1621 33.7953 20.1426 33.7999 21.3534Z" fill="black"/>
<path opacity="0.2" d="M33.7999 21.3534V23.9335C33.3949 23.9066 32.9932 23.8423 32.6 23.7415C30.1699 23.166 28.1624 21.4618 27.2 19.1575H31.6039C32.8148 19.1621 33.7953 20.1426 33.7999 21.3534Z" fill="black"/>
<path opacity="0.2" d="M32.6 21.3533V23.7413C30.1699 23.1659 28.1624 21.4617 27.2 19.1573H30.404C31.6149 19.162 32.5953 20.1425 32.6 21.3533Z" fill="black"/>
<path d="M8.39954 19.1573H30.4003C31.6151 19.1573 32.5999 20.1422 32.5999 21.3569V43.3577C32.5999 44.5725 31.6151 45.5573 30.4003 45.5573H8.39954C7.18473 45.5573 6.19995 44.5725 6.19995 43.3577V21.3569C6.19995 20.1422 7.18475 19.1573 8.39954 19.1573Z" fill="url(#paint0_linear_4140_8415)"/>
<path d="M25.1888 27.5311H20.7908V39.5071H17.9888V27.5311H13.6112V25.2079H25.1888V27.5311Z" fill="white"/>
</g>
<defs>
<linearGradient id="paint0_linear_4140_8415" x1="10.7862" y1="17.4386" x2="28.0137" y2="47.2761" gradientUnits="userSpaceOnUse">
<stop stop-color="#5A62C3"/>
<stop offset="0.5" stop-color="#4D55BD"/>
<stop offset="1" stop-color="#3940AB"/>
</linearGradient>
<clipPath id="clip0_4140_8415">
<rect width="51.6" height="48" fill="white" transform="translate(6.19995 8.35742)"/>
</clipPath>
</defs>
</svg>
