<?xml version="1.0" encoding="utf-8"?><svg width="65" height="65" viewBox="0 0 65 65" fill="none" xmlns="http://www.w3.org/2000/svg">
<g clip-path="url(#clip0_4140_8455)">
<path d="M35.3492 41.0644L31.256 18.2463C30.9868 16.6347 30.4485 15.0258 29.442 13.4814C28.0991 11.3344 25.9516 9.85734 23.5349 9.25333C14.0027 6.9718 6.95445 16.5015 11.115 24.9577L21.0509 46.2314C21.32 46.9041 21.7238 47.574 22.192 48.178C22.998 49.2515 24.0718 50.0559 25.3474 50.4595C31.7914 52.4734 36.9613 46.7682 35.3492 41.0644Z" fill="url(#paint0_linear_4140_8455)"/>
<path d="M53.944 26.7024C53.0242 25.25 51.6917 24.1052 50.1171 23.4147L25.817 10.0591C25.1455 9.72271 24.4082 9.38777 23.6021 9.18597C13.1966 6.7699 5.74607 18.1789 12.392 27.0374C13.4214 28.4049 14.818 29.4522 16.4193 30.0574L40.9213 41.0643C41.4582 41.4006 41.9951 41.601 42.5992 41.8028C51.9969 44.7556 59.1124 34.8237 53.944 26.7024Z" fill="url(#paint1_linear_4140_8455)"/>
<path d="M53.9445 26.7025C52.7281 24.8125 50.828 23.4657 48.6415 22.9439C46.2921 22.4072 44.0772 22.6076 42.1974 23.4148L16.3525 33.1449C16.3525 33.1449 16.218 33.2122 15.9502 33.414C9.30291 36.0304 6.0157 44.6885 11.3846 51.8694C12.5929 53.481 14.2723 54.6876 16.1507 55.2244C19.7098 56.2979 22.9312 55.8957 25.5497 54.4858H25.617L50.8563 40.9971L50.9236 40.9298C55.3533 38.3792 57.4349 32.1387 53.9445 26.7025Z" fill="url(#paint2_linear_4140_8455)"/>
<path d="M42.465 17.5077C43.271 15.6957 43.2037 13.4814 41.8622 11.4675C41.1235 10.2609 39.9137 9.45509 38.5722 9.12015C35.5513 8.3816 33.0001 9.79003 31.7917 11.937L11.0494 37.1067V37.1725C8.09579 41.0657 7.62619 46.8368 11.3858 51.8707C12.5927 53.4824 14.2721 54.689 16.1519 55.2257C23.2001 57.44 29.1073 53.5482 30.9871 47.9776L42.465 17.5105V17.5077Z" fill="url(#paint3_linear_4140_8455)"/>
<path d="M17.6954 17.9114H46.6943V46.9027H17.6954V17.9114Z" fill="black"/>
<path d="M20.4473 41.4664H31.3224V43.2785H20.4473V41.4664ZM24.0723 24.1531H20.4473V21.7357H30.3832V24.1517H26.6909V33.7487H24.0723V24.1531ZM30.5164 27.7758C30.5164 24.3536 33.0676 21.5353 36.7599 21.5353C39.0421 21.5353 40.385 22.2724 41.526 23.4132L39.8481 25.3612C38.9089 24.4881 37.9683 24.0186 36.7599 24.0186C34.7456 24.0186 33.2695 25.6961 33.2695 27.7758V27.7086C33.2695 29.7897 34.6783 31.4672 36.7599 31.4672C38.1029 31.4672 38.9748 30.9305 39.914 30.0574L41.5933 31.7363C40.385 33.0774 38.9748 33.8833 36.6927 33.8833C33.1349 33.9505 30.5164 31.1981 30.5164 27.7758Z" fill="white"/>
</g>
<defs>
<linearGradient id="paint0_linear_4140_8455" x1="9.48182" y1="2108.42" x2="2586.76" y2="2108.42" gradientUnits="userSpaceOnUse">
<stop stop-color="#905CFB"/>
<stop offset="0.06773" stop-color="#776CF9"/>
<stop offset="0.1729" stop-color="#5681F7"/>
<stop offset="0.2865" stop-color="#3B92F5"/>
<stop offset="0.4097" stop-color="#269FF4"/>
<stop offset="0.5474" stop-color="#17A9F3"/>
<stop offset="0.7111" stop-color="#0FAEF2"/>
<stop offset="0.9677" stop-color="#0CB0F2"/>
</linearGradient>
<linearGradient id="paint1_linear_4140_8455" x1="249.283" y1="1138.36" x2="4094.77" y2="3196.26" gradientUnits="userSpaceOnUse">
<stop stop-color="#905CFB"/>
<stop offset="0.06773" stop-color="#776CF9"/>
<stop offset="0.1729" stop-color="#5681F7"/>
<stop offset="0.2865" stop-color="#3B92F5"/>
<stop offset="0.4097" stop-color="#269FF4"/>
<stop offset="0.5474" stop-color="#17A9F3"/>
<stop offset="0.7111" stop-color="#0FAEF2"/>
<stop offset="0.9677" stop-color="#0CB0F2"/>
</linearGradient>
<linearGradient id="paint2_linear_4140_8455" x1="-1285.88" y1="2540.72" x2="3259.88" y2="267.259" gradientUnits="userSpaceOnUse">
<stop stop-color="#3BEA62"/>
<stop offset="0.117" stop-color="#31DE80"/>
<stop offset="0.3025" stop-color="#24CEA8"/>
<stop offset="0.4844" stop-color="#1AC1C9"/>
<stop offset="0.6592" stop-color="#12B7DF"/>
<stop offset="0.8238" stop-color="#0EB2ED"/>
<stop offset="0.9677" stop-color="#0CB0F2"/>
</linearGradient>
<linearGradient id="paint3_linear_4140_8455" x1="2203.15" y1="401.21" x2="142.269" y2="4807.93" gradientUnits="userSpaceOnUse">
<stop stop-color="#3BEA62"/>
<stop offset="0.09398" stop-color="#2FDB87"/>
<stop offset="0.196" stop-color="#24CEA8"/>
<stop offset="0.3063" stop-color="#1BC3C3"/>
<stop offset="0.4259" stop-color="#14BAD8"/>
<stop offset="0.5596" stop-color="#10B5E7"/>
<stop offset="0.7185" stop-color="#0DB1EF"/>
<stop offset="0.9677" stop-color="#0CB0F2"/>
</linearGradient>
<clipPath id="clip0_4140_8455">
<path d="M0.200012 11.3574C0.200012 5.28229 5.12488 0.357422 11.2 0.357422H53.2C59.2751 0.357422 64.2 5.28229 64.2 11.3574V53.3574C64.2 59.4326 59.2751 64.3574 53.2 64.3574H11.2C5.12488 64.3574 0.200012 59.4326 0.200012 53.3574V11.3574Z" fill="white"/>
</clipPath>
</defs>
</svg>
