<?xml version="1.0" encoding="utf-8"?><svg width="65" height="65" viewBox="0 0 65 65" fill="none" xmlns="http://www.w3.org/2000/svg">
<path d="M49.825 8.85742H14.575C13.0168 8.85742 11.5225 9.47639 10.4207 10.5782C9.31892 11.6799 8.69995 13.1743 8.69995 14.7324L8.69995 49.9824C8.69995 51.5406 9.31892 53.0349 10.4207 54.1367C11.5225 55.2384 13.0168 55.8574 14.575 55.8574H49.825C51.3831 55.8574 52.8774 55.2384 53.9792 54.1367C55.081 53.0349 55.7 51.5406 55.7 49.9824V14.7324C55.7 13.1743 55.081 11.6799 53.9792 10.5782C52.8774 9.47639 51.3831 8.85742 49.825 8.85742ZM29.145 44.4572C29.145 45.2051 28.8478 45.9223 28.319 46.4512C27.7901 46.98 27.0729 47.2772 26.325 47.2772H17.63C16.882 47.2772 16.1648 46.98 15.6359 46.4512C15.1071 45.9223 14.81 45.2051 14.81 44.4572V17.7874C14.81 17.0395 15.1071 16.3222 15.6359 15.7934C16.1648 15.2645 16.882 14.9674 17.63 14.9674H26.325C27.0729 14.9674 27.7901 15.2645 28.319 15.7934C28.8478 16.3222 29.145 17.0395 29.145 17.7874V44.4572ZM49.59 32.7072C49.59 33.4551 49.2928 34.1723 48.764 34.7012C48.2351 35.2301 47.5179 35.5272 46.77 35.5272H38.075C37.327 35.5272 36.6098 35.2301 36.0809 34.7012C35.5521 34.1723 35.2549 33.4551 35.2549 32.7072V17.7874C35.2549 17.0395 35.5521 16.3222 36.0809 15.7934C36.6098 15.2645 37.327 14.9674 38.075 14.9674H46.77C47.5179 14.9674 48.2351 15.2645 48.764 15.7934C49.2928 16.3222 49.59 17.0395 49.59 17.7874V32.7072Z" fill="url(#paint0_linear_4140_8531)"/>
<defs>
<linearGradient id="paint0_linear_4140_8531" x1="2358.7" y1="4708.39" x2="2358.7" y2="8.85742" gradientUnits="userSpaceOnUse">
<stop stop-color="#0B7ABF"/>
<stop offset="1" stop-color="#368DCC"/>
</linearGradient>
</defs>
</svg>
