<?xml version="1.0" encoding="UTF-8"?><svg width="80" height="80" viewBox="0 0 80 80" fill="none" xmlns="http://www.w3.org/2000/svg">
<path d="M48.1091 66.487L40.3979 69.8278C40.1443 69.9377 39.8565 69.9377 39.6028 69.8278L35.0735 67.8655C24.101 63.1117 16.9996 52.2958 16.9996 40.3379L16.9996 21.1196C16.9996 20.7277 17.2285 20.372 17.5851 20.2095L37.9279 10.944C39.2445 10.3444 40.7563 10.3444 42.0729 10.944L62.4156 20.2095C62.7723 20.372 63.0011 20.7277 63.0011 21.1196L63.0011 40.0176L63.0012 47.6423" stroke="#1C1C1C" stroke-width="2" stroke-linecap="round" stroke-linejoin="round"/>
<circle cx="40.0005" cy="40" r="11.999" stroke="#1C1C1C" stroke-width="2" stroke-linecap="round" stroke-linejoin="round"/>
<path d="M35.4625 40.0842L38.416 43.019L44.5417 36.9798" stroke="#1C1C1C" stroke-width="2" stroke-linecap="round" stroke-linejoin="round"/>
<path d="M69.4187 63.6268V58.4649C69.4187 57.0277 68.8478 55.6495 67.8316 54.6333C66.8154 53.617 65.4371 53.0462 64 53.0462C62.5628 53.0462 61.1845 53.617 60.1683 54.6333C59.1521 55.6495 58.5812 57.0277 58.5812 58.4649V63.6268" stroke="#916FEF" stroke-width="2" stroke-linecap="round" stroke-linejoin="round"/>
<path fill-rule="evenodd" clip-rule="evenodd" d="M56.631 61.2602H71.3688C72.3863 61.2602 73.2111 62.085 73.2111 63.1024V74.1558C73.2111 75.1733 72.3863 75.998 71.3688 75.998H56.631C55.6136 75.998 54.7888 75.1733 54.7888 74.1558V63.1024C54.7888 62.085 55.6136 61.2602 56.631 61.2602ZM62.7144 67.3437C62.0045 68.0536 62.0045 69.2047 62.7144 69.9147C63.4244 70.6247 64.5754 70.6245 65.2853 69.9146C65.9953 69.2046 65.9954 68.0537 65.2854 67.3437C64.5755 66.6337 63.4244 66.6337 62.7144 67.3437Z" fill="#916FEF"/>
</svg>
