<?xml version="1.0" encoding="utf-8"?><svg width="65" height="65" viewBox="0 0 65 65" fill="none" xmlns="http://www.w3.org/2000/svg">
<g clip-path="url(#clip0_4140_8539)">
<path d="M12.0105 32.3574C12.0105 40.5054 16.7477 47.5482 23.6141 50.8867L13.7934 23.9774C12.6158 26.6141 12.0082 29.4697 12.0105 32.3574ZM46.4976 31.3183C46.4976 28.7735 45.5836 27.0117 44.8005 25.6398C43.757 23.9443 42.7783 22.5077 42.7783 20.8121C42.7783 18.9193 44.2133 17.1575 46.2356 17.1575C46.3259 17.1575 46.4132 17.168 46.5021 17.1725C42.7102 13.6901 37.7474 11.7609 32.5991 11.7681C25.406 11.7681 19.0787 15.4589 15.397 21.0485C15.8804 21.0636 16.3351 21.0741 16.7221 21.0741C18.8754 21.0741 22.2092 20.8121 22.2092 20.8121C23.319 20.7474 23.45 22.3782 22.3417 22.5077C22.3417 22.5077 21.2259 22.6387 19.9852 22.7035L27.4825 45.0049L31.9878 31.493L28.7805 22.7035C27.6707 22.6387 26.6212 22.5077 26.6212 22.5077C25.5114 22.443 25.6424 20.7459 26.7507 20.8121C26.7507 20.8121 30.1507 21.0726 32.1745 21.0726C34.3278 21.0726 37.6616 20.8121 37.6616 20.8121C38.7714 20.7459 38.9024 22.3767 37.7926 22.5077C37.7926 22.5077 36.6753 22.6387 35.436 22.7035L42.8761 44.8362L44.93 37.9741C45.82 35.1251 46.4976 33.0802 46.4976 31.3183Z" fill="#464342"/>
<path d="M32.9606 34.1585L26.7838 52.1081C30.9309 53.3298 35.3573 53.215 39.4354 51.7798C39.3785 51.6899 39.3296 51.5952 39.2894 51.4967L32.9606 34.1585ZM50.6641 22.4792C50.7529 23.1343 50.8026 23.839 50.8026 24.5965C50.8026 26.685 50.4126 29.0341 49.2366 31.9705L42.9484 50.1535C49.0695 46.5847 53.1878 39.953 53.1878 32.3575C53.1878 28.7782 52.2723 25.4111 50.6641 22.4792Z" fill="#464342"/>
<path d="M32.5992 8.35742C19.3664 8.35742 8.59998 19.1241 8.59998 32.3574C8.59998 45.5922 19.3664 56.3574 32.5992 56.3574C45.8321 56.3574 56.6 45.5907 56.6 32.3574C56.6 19.1241 45.8321 8.35742 32.5992 8.35742ZM32.5992 55.2567C19.9732 55.2567 9.70071 44.9839 9.70071 32.3574C9.70071 19.731 19.9732 9.45819 32.5992 9.45819C45.2253 9.45819 55.4977 19.731 55.4977 32.3574C55.4977 44.9839 45.2253 55.2567 32.5992 55.2567Z" fill="#464342"/>
</g>
<defs>
<clipPath id="clip0_4140_8539">
<path d="M0.599976 11.3574C0.599976 5.28229 5.52484 0.357422 11.6 0.357422H53.6C59.6751 0.357422 64.6 5.28229 64.6 11.3574V53.3574C64.6 59.4326 59.6751 64.3574 53.6 64.3574H11.6C5.52484 64.3574 0.599976 59.4326 0.599976 53.3574V11.3574Z" fill="white"/>
</clipPath>
</defs>
</svg>
