<?xml version="1.0" encoding="utf-8"?><svg width="65" height="65" viewBox="0 0 65 65" fill="none" xmlns="http://www.w3.org/2000/svg">
<path d="M38.2751 32.3676C38.2739 34.1139 37.9546 35.7857 37.3727 37.329C35.8296 37.9114 34.1572 38.2314 32.4102 38.2325H32.39C30.6439 38.2314 28.9719 37.9124 27.4289 37.3301C26.8468 35.7874 26.5262 34.1149 26.5251 32.3681V32.3478C26.5262 30.6015 26.8461 28.9297 27.4272 27.3866C28.9709 26.8045 30.6432 26.4842 32.39 26.483H32.4102C34.1572 26.4842 35.8296 26.8045 37.3725 27.3866C37.9542 28.9298 38.2738 30.6016 38.2749 32.3479L38.2751 32.3676ZM55.5734 28.4408H41.8558L51.5554 18.7412C50.7939 17.6717 49.9444 16.6676 49.016 15.7393C48.0884 14.8119 47.0848 13.9624 46.0164 13.2015L36.3168 22.9011V9.18431C35.0266 8.96751 33.7206 8.85817 32.4123 8.85742H32.3874C31.0792 8.85812 29.7734 8.96738 28.4833 9.18407V22.9018L18.7837 13.2022C17.7148 13.9634 16.7112 14.8123 15.7833 15.7402L15.7798 15.7434C14.8532 16.6705 14.0054 17.6732 13.2452 18.7411L22.9448 28.4407H9.2267C9.2267 28.4407 8.90052 31.0175 8.90005 32.3487V32.3658C8.90054 33.6755 9.0098 34.9829 9.2267 36.2745H22.9444L13.2447 45.9741C14.7701 48.1157 16.6421 49.9877 18.7837 51.5131L28.4833 41.8137V55.5308C29.7722 55.7472 31.0767 55.8565 32.3836 55.8574H32.4172C33.7239 55.8564 35.0283 55.7471 36.317 55.5308V41.813L46.0167 51.5126C47.0852 50.7517 48.0885 49.9031 49.0162 48.9756L49.0186 48.9738C49.9459 48.0461 50.7945 47.0428 51.5554 45.9744L41.8558 36.2745H55.5734C55.7898 34.9858 55.8991 33.6814 55.9001 32.3747V32.341C55.899 31.0342 55.7898 29.7295 55.5734 28.4408Z" fill="#FF4A00"/>
</svg>
